<?xml version="1.0" encoding="UTF-8" standalone="no"?>
<!DOCTYPE svg PUBLIC "-//W3C//DTD SVG 1.1//EN"
 "http://www.w3.org/Graphics/SVG/1.1/DTD/svg11.dtd">
<!-- Generated by graphviz version 9.0.0 (20230911.1827)
 -->
<!-- Pages: 1 -->
<svg width="1134pt" height="1888pt"
 viewBox="0.00 0.00 1134.22 1887.50" xmlns="http://www.w3.org/2000/svg" xmlns:xlink="http://www.w3.org/1999/xlink">
<g id="graph0" class="graph" transform="scale(1 1) rotate(0) translate(4 1883.5)">
<polygon fill="#eeeeee" stroke="none" points="-4,4 -4,-1883.5 1130.22,-1883.5 1130.22,4 -4,4"/>
<!-- Activity -->
<g id="node1" class="node">
<title>Activity</title>
<g id="a_node1"><a xlink:href="http://Activity_details.html" xlink:title="&lt;TABLE&gt;">
<polygon fill="#3f51b5" stroke="none" points="810.72,-1855.5 810.72,-1875.5 960.72,-1875.5 960.72,-1855.5 810.72,-1855.5"/>
<polygon fill="none" stroke="black" points="810.72,-1855.5 810.72,-1875.5 960.72,-1875.5 960.72,-1855.5 810.72,-1855.5"/>
<text text-anchor="start" x="866.22" y="-1861.1" font-family="Roboto" font-size="12.00" fill="white">Activity</text>
<polygon fill="#bbdefb" stroke="none" points="810.72,-1835.5 810.72,-1855.5 880.72,-1855.5 880.72,-1835.5 810.72,-1835.5"/>
<polygon fill="none" stroke="black" points="810.72,-1835.5 810.72,-1855.5 880.72,-1855.5 880.72,-1835.5 810.72,-1835.5"/>
<text text-anchor="start" x="813.47" y="-1841.1" font-family="Roboto" font-size="12.00">company_id</text>
<polygon fill="#bbdefb" stroke="none" points="880.72,-1835.5 880.72,-1855.5 960.72,-1855.5 960.72,-1835.5 880.72,-1835.5"/>
<polygon fill="none" stroke="black" points="880.72,-1835.5 880.72,-1855.5 960.72,-1855.5 960.72,-1835.5 880.72,-1835.5"/>
<text text-anchor="start" x="883.59" y="-1841.1" font-family="Roboto" font-size="12.00">INTEGER (PK)</text>
<polygon fill="#bbdefb" stroke="none" points="810.72,-1815.5 810.72,-1835.5 880.72,-1835.5 880.72,-1815.5 810.72,-1815.5"/>
<polygon fill="none" stroke="black" points="810.72,-1815.5 810.72,-1835.5 880.72,-1835.5 880.72,-1815.5 810.72,-1815.5"/>
<text text-anchor="start" x="820.22" y="-1821.1" font-family="Roboto" font-size="12.00">project_id</text>
<polygon fill="#bbdefb" stroke="none" points="880.72,-1815.5 880.72,-1835.5 960.72,-1835.5 960.72,-1815.5 880.72,-1815.5"/>
<polygon fill="none" stroke="black" points="880.72,-1815.5 880.72,-1835.5 960.72,-1835.5 960.72,-1815.5 880.72,-1815.5"/>
<text text-anchor="start" x="883.59" y="-1821.1" font-family="Roboto" font-size="12.00">INTEGER (PK)</text>
<polygon fill="#bbdefb" stroke="none" points="810.72,-1795.5 810.72,-1815.5 880.72,-1815.5 880.72,-1795.5 810.72,-1795.5"/>
<polygon fill="none" stroke="black" points="810.72,-1795.5 810.72,-1815.5 880.72,-1815.5 880.72,-1795.5 810.72,-1795.5"/>
<text text-anchor="start" x="831.09" y="-1801.1" font-family="Roboto" font-size="12.00">stage</text>
<polygon fill="#bbdefb" stroke="none" points="880.72,-1795.5 880.72,-1815.5 960.72,-1815.5 960.72,-1795.5 880.72,-1795.5"/>
<polygon fill="none" stroke="black" points="880.72,-1795.5 880.72,-1815.5 960.72,-1815.5 960.72,-1795.5 880.72,-1795.5"/>
<text text-anchor="start" x="888.47" y="-1801.1" font-family="Roboto" font-size="12.00">VARCHAR ()</text>
<polygon fill="#bbdefb" stroke="none" points="810.72,-1775.5 810.72,-1795.5 880.72,-1795.5 880.72,-1775.5 810.72,-1775.5"/>
<polygon fill="none" stroke="black" points="810.72,-1775.5 810.72,-1795.5 880.72,-1795.5 880.72,-1775.5 810.72,-1775.5"/>
<text text-anchor="start" x="835.97" y="-1781.1" font-family="Roboto" font-size="12.00">role</text>
<polygon fill="#bbdefb" stroke="none" points="880.72,-1775.5 880.72,-1795.5 960.72,-1795.5 960.72,-1775.5 880.72,-1775.5"/>
<polygon fill="none" stroke="black" points="880.72,-1775.5 880.72,-1795.5 960.72,-1795.5 960.72,-1775.5 880.72,-1775.5"/>
<text text-anchor="start" x="888.47" y="-1781.1" font-family="Roboto" font-size="12.00">VARCHAR ()</text>
</a>
</g>
</g>
<!-- Company -->
<g id="node2" class="node">
<title>Company</title>
<g id="a_node2"><a xlink:href="http://Company_details.html" xlink:title="&lt;TABLE&gt;">
<polygon fill="#3f51b5" stroke="none" points="498.72,-1700.25 498.72,-1720.25 644.72,-1720.25 644.72,-1700.25 498.72,-1700.25"/>
<polygon fill="none" stroke="black" points="498.72,-1700.25 498.72,-1720.25 644.72,-1720.25 644.72,-1700.25 498.72,-1700.25"/>
<text text-anchor="start" x="546.22" y="-1705.85" font-family="Roboto" font-size="12.00" fill="white">Company</text>
<polygon fill="#bbdefb" stroke="none" points="498.72,-1680.25 498.72,-1700.25 564.72,-1700.25 564.72,-1680.25 498.72,-1680.25"/>
<polygon fill="none" stroke="black" points="498.72,-1680.25 498.72,-1700.25 564.72,-1700.25 564.72,-1680.25 498.72,-1680.25"/>
<text text-anchor="start" x="526.84" y="-1685.85" font-family="Roboto" font-size="12.00">id</text>
<polygon fill="#bbdefb" stroke="none" points="564.72,-1680.25 564.72,-1700.25 644.72,-1700.25 644.72,-1680.25 564.72,-1680.25"/>
<polygon fill="none" stroke="black" points="564.72,-1680.25 564.72,-1700.25 644.72,-1700.25 644.72,-1680.25 564.72,-1680.25"/>
<text text-anchor="start" x="567.59" y="-1685.85" font-family="Roboto" font-size="12.00">INTEGER (PK)</text>
<polygon fill="#bbdefb" stroke="none" points="498.72,-1660.25 498.72,-1680.25 564.72,-1680.25 564.72,-1660.25 498.72,-1660.25"/>
<polygon fill="none" stroke="black" points="498.72,-1660.25 498.72,-1680.25 564.72,-1680.25 564.72,-1660.25 498.72,-1660.25"/>
<text text-anchor="start" x="516.72" y="-1665.85" font-family="Roboto" font-size="12.00">name</text>
<polygon fill="#bbdefb" stroke="none" points="564.72,-1660.25 564.72,-1680.25 644.72,-1680.25 644.72,-1660.25 564.72,-1660.25"/>
<polygon fill="none" stroke="black" points="564.72,-1660.25 564.72,-1680.25 644.72,-1680.25 644.72,-1660.25 564.72,-1660.25"/>
<text text-anchor="start" x="572.47" y="-1665.85" font-family="Roboto" font-size="12.00">VARCHAR ()</text>
<polygon fill="#bbdefb" stroke="none" points="498.72,-1640.25 498.72,-1660.25 564.72,-1660.25 564.72,-1640.25 498.72,-1640.25"/>
<polygon fill="none" stroke="black" points="498.72,-1640.25 498.72,-1660.25 564.72,-1660.25 564.72,-1640.25 498.72,-1640.25"/>
<text text-anchor="start" x="517.09" y="-1645.85" font-family="Roboto" font-size="12.00">street</text>
<polygon fill="#bbdefb" stroke="none" points="564.72,-1640.25 564.72,-1660.25 644.72,-1660.25 644.72,-1640.25 564.72,-1640.25"/>
<polygon fill="none" stroke="black" points="564.72,-1640.25 564.72,-1660.25 644.72,-1660.25 644.72,-1640.25 564.72,-1640.25"/>
<text text-anchor="start" x="572.47" y="-1645.85" font-family="Roboto" font-size="12.00">VARCHAR ()</text>
<polygon fill="#bbdefb" stroke="none" points="498.72,-1620.25 498.72,-1640.25 564.72,-1640.25 564.72,-1620.25 498.72,-1620.25"/>
<polygon fill="none" stroke="black" points="498.72,-1620.25 498.72,-1640.25 564.72,-1640.25 564.72,-1620.25 498.72,-1620.25"/>
<text text-anchor="start" x="507.34" y="-1625.85" font-family="Roboto" font-size="12.00">postcode</text>
<polygon fill="#bbdefb" stroke="none" points="564.72,-1620.25 564.72,-1640.25 644.72,-1640.25 644.72,-1620.25 564.72,-1620.25"/>
<polygon fill="none" stroke="black" points="564.72,-1620.25 564.72,-1640.25 644.72,-1640.25 644.72,-1620.25 564.72,-1620.25"/>
<text text-anchor="start" x="572.47" y="-1625.85" font-family="Roboto" font-size="12.00">VARCHAR ()</text>
<polygon fill="#bbdefb" stroke="none" points="498.72,-1600.25 498.72,-1620.25 564.72,-1620.25 564.72,-1600.25 498.72,-1600.25"/>
<polygon fill="none" stroke="black" points="498.72,-1600.25 498.72,-1620.25 564.72,-1620.25 564.72,-1600.25 498.72,-1600.25"/>
<text text-anchor="start" x="522.34" y="-1605.85" font-family="Roboto" font-size="12.00">city</text>
<polygon fill="#bbdefb" stroke="none" points="564.72,-1600.25 564.72,-1620.25 644.72,-1620.25 644.72,-1600.25 564.72,-1600.25"/>
<polygon fill="none" stroke="black" points="564.72,-1600.25 564.72,-1620.25 644.72,-1620.25 644.72,-1600.25 564.72,-1600.25"/>
<text text-anchor="start" x="572.47" y="-1605.85" font-family="Roboto" font-size="12.00">VARCHAR ()</text>
<polygon fill="#bbdefb" stroke="none" points="498.72,-1580.25 498.72,-1600.25 564.72,-1600.25 564.72,-1580.25 498.72,-1580.25"/>
<polygon fill="none" stroke="black" points="498.72,-1580.25 498.72,-1600.25 564.72,-1600.25 564.72,-1580.25 498.72,-1580.25"/>
<text text-anchor="start" x="501.34" y="-1585.85" font-family="Roboto" font-size="12.00">subdivision</text>
<polygon fill="#bbdefb" stroke="none" points="564.72,-1580.25 564.72,-1600.25 644.72,-1600.25 644.72,-1580.25 564.72,-1580.25"/>
<polygon fill="none" stroke="black" points="564.72,-1580.25 564.72,-1600.25 644.72,-1600.25 644.72,-1580.25 564.72,-1580.25"/>
<text text-anchor="start" x="572.47" y="-1585.85" font-family="Roboto" font-size="12.00">VARCHAR ()</text>
<polygon fill="#bbdefb" stroke="none" points="498.72,-1560.25 498.72,-1580.25 564.72,-1580.25 564.72,-1560.25 498.72,-1560.25"/>
<polygon fill="none" stroke="black" points="498.72,-1560.25 498.72,-1580.25 564.72,-1580.25 564.72,-1560.25 498.72,-1560.25"/>
<text text-anchor="start" x="511.84" y="-1565.85" font-family="Roboto" font-size="12.00">country</text>
<polygon fill="#bbdefb" stroke="none" points="564.72,-1560.25 564.72,-1580.25 644.72,-1580.25 644.72,-1560.25 564.72,-1560.25"/>
<polygon fill="none" stroke="black" points="564.72,-1560.25 564.72,-1580.25 644.72,-1580.25 644.72,-1560.25 564.72,-1560.25"/>
<text text-anchor="start" x="572.47" y="-1565.85" font-family="Roboto" font-size="12.00">VARCHAR ()</text>
<polygon fill="#bbdefb" stroke="none" points="498.72,-1540.25 498.72,-1560.25 564.72,-1560.25 564.72,-1540.25 498.72,-1540.25"/>
<polygon fill="none" stroke="black" points="498.72,-1540.25 498.72,-1560.25 564.72,-1560.25 564.72,-1540.25 498.72,-1540.25"/>
<text text-anchor="start" x="511.84" y="-1545.85" font-family="Roboto" font-size="12.00">latitude</text>
<polygon fill="#bbdefb" stroke="none" points="564.72,-1540.25 564.72,-1560.25 644.72,-1560.25 644.72,-1540.25 564.72,-1540.25"/>
<polygon fill="none" stroke="black" points="564.72,-1540.25 564.72,-1560.25 644.72,-1560.25 644.72,-1540.25 564.72,-1540.25"/>
<text text-anchor="start" x="580.72" y="-1545.85" font-family="Roboto" font-size="12.00">FLOAT ()</text>
<polygon fill="#bbdefb" stroke="none" points="498.72,-1520.25 498.72,-1540.25 564.72,-1540.25 564.72,-1520.25 498.72,-1520.25"/>
<polygon fill="none" stroke="black" points="498.72,-1520.25 498.72,-1540.25 564.72,-1540.25 564.72,-1520.25 498.72,-1520.25"/>
<text text-anchor="start" x="506.97" y="-1525.85" font-family="Roboto" font-size="12.00">longitude</text>
<polygon fill="#bbdefb" stroke="none" points="564.72,-1520.25 564.72,-1540.25 644.72,-1540.25 644.72,-1520.25 564.72,-1520.25"/>
<polygon fill="none" stroke="black" points="564.72,-1520.25 564.72,-1540.25 644.72,-1540.25 644.72,-1520.25 564.72,-1520.25"/>
<text text-anchor="start" x="580.72" y="-1525.85" font-family="Roboto" font-size="12.00">FLOAT ()</text>
<polygon fill="#bbdefb" stroke="none" points="498.72,-1500.25 498.72,-1520.25 564.72,-1520.25 564.72,-1500.25 498.72,-1500.25"/>
<polygon fill="none" stroke="black" points="498.72,-1500.25 498.72,-1520.25 564.72,-1520.25 564.72,-1500.25 498.72,-1500.25"/>
<text text-anchor="start" x="511.47" y="-1505.85" font-family="Roboto" font-size="12.00">website</text>
<polygon fill="#bbdefb" stroke="none" points="564.72,-1500.25 564.72,-1520.25 644.72,-1520.25 644.72,-1500.25 564.72,-1500.25"/>
<polygon fill="none" stroke="black" points="564.72,-1500.25 564.72,-1520.25 644.72,-1520.25 644.72,-1500.25 564.72,-1500.25"/>
<text text-anchor="start" x="572.47" y="-1505.85" font-family="Roboto" font-size="12.00">VARCHAR ()</text>
<polygon fill="#bbdefb" stroke="none" points="498.72,-1480.25 498.72,-1500.25 564.72,-1500.25 564.72,-1480.25 498.72,-1480.25"/>
<polygon fill="none" stroke="black" points="498.72,-1480.25 498.72,-1500.25 564.72,-1500.25 564.72,-1480.25 498.72,-1480.25"/>
<text text-anchor="start" x="518.59" y="-1485.85" font-family="Roboto" font-size="12.00">color</text>
<polygon fill="#bbdefb" stroke="none" points="564.72,-1480.25 564.72,-1500.25 644.72,-1500.25 644.72,-1480.25 564.72,-1480.25"/>
<polygon fill="none" stroke="black" points="564.72,-1480.25 564.72,-1500.25 644.72,-1500.25 644.72,-1480.25 564.72,-1480.25"/>
<text text-anchor="start" x="572.47" y="-1485.85" font-family="Roboto" font-size="12.00">VARCHAR ()</text>
<polygon fill="#bbdefb" stroke="none" points="498.72,-1460.25 498.72,-1480.25 564.72,-1480.25 564.72,-1460.25 498.72,-1460.25"/>
<polygon fill="none" stroke="black" points="498.72,-1460.25 498.72,-1480.25 564.72,-1480.25 564.72,-1460.25 498.72,-1460.25"/>
<text text-anchor="start" x="504.34" y="-1465.85" font-family="Roboto" font-size="12.00">created_at</text>
<polygon fill="#bbdefb" stroke="none" points="564.72,-1460.25 564.72,-1480.25 644.72,-1480.25 644.72,-1460.25 564.72,-1460.25"/>
<polygon fill="none" stroke="black" points="564.72,-1460.25 564.72,-1480.25 644.72,-1480.25 644.72,-1460.25 564.72,-1460.25"/>
<text text-anchor="start" x="570.22" y="-1465.85" font-family="Roboto" font-size="12.00">DATETIME ()</text>
<polygon fill="#bbdefb" stroke="none" points="498.72,-1440.25 498.72,-1460.25 564.72,-1460.25 564.72,-1440.25 498.72,-1440.25"/>
<polygon fill="none" stroke="black" points="498.72,-1440.25 498.72,-1460.25 564.72,-1460.25 564.72,-1440.25 498.72,-1440.25"/>
<text text-anchor="start" x="502.09" y="-1445.85" font-family="Roboto" font-size="12.00">updated_at</text>
<polygon fill="#bbdefb" stroke="none" points="564.72,-1440.25 564.72,-1460.25 644.72,-1460.25 644.72,-1440.25 564.72,-1440.25"/>
<polygon fill="none" stroke="black" points="564.72,-1440.25 564.72,-1460.25 644.72,-1460.25 644.72,-1440.25 564.72,-1440.25"/>
<text text-anchor="start" x="570.22" y="-1445.85" font-family="Roboto" font-size="12.00">DATETIME ()</text>
<polygon fill="#bbdefb" stroke="none" points="498.72,-1420.25 498.72,-1440.25 564.72,-1440.25 564.72,-1420.25 498.72,-1420.25"/>
<polygon fill="none" stroke="black" points="498.72,-1420.25 498.72,-1440.25 564.72,-1440.25 564.72,-1420.25 498.72,-1420.25"/>
<text text-anchor="start" x="505.84" y="-1425.85" font-family="Roboto" font-size="12.00">creator_id</text>
<polygon fill="#bbdefb" stroke="none" points="564.72,-1420.25 564.72,-1440.25 644.72,-1440.25 644.72,-1420.25 564.72,-1420.25"/>
<polygon fill="none" stroke="black" points="564.72,-1420.25 564.72,-1440.25 644.72,-1440.25 644.72,-1420.25 564.72,-1420.25"/>
<text text-anchor="start" x="575.09" y="-1425.85" font-family="Roboto" font-size="12.00">INTEGER ()</text>
<polygon fill="#bbdefb" stroke="none" points="498.72,-1400.25 498.72,-1420.25 564.72,-1420.25 564.72,-1400.25 498.72,-1400.25"/>
<polygon fill="none" stroke="black" points="498.72,-1400.25 498.72,-1420.25 564.72,-1420.25 564.72,-1400.25 498.72,-1400.25"/>
<text text-anchor="start" x="509.22" y="-1405.85" font-family="Roboto" font-size="12.00">editor_id</text>
<polygon fill="#bbdefb" stroke="none" points="564.72,-1400.25 564.72,-1420.25 644.72,-1420.25 644.72,-1400.25 564.72,-1400.25"/>
<polygon fill="none" stroke="black" points="564.72,-1400.25 564.72,-1420.25 644.72,-1420.25 644.72,-1400.25 564.72,-1400.25"/>
<text text-anchor="start" x="575.09" y="-1405.85" font-family="Roboto" font-size="12.00">INTEGER ()</text>
</a>
</g>
</g>
<!-- Activity&#45;&gt;Company -->
<g id="edge1" class="edge">
<title>Activity&#45;&gt;Company</title>
<g id="a_edge1"><a xlink:title="Relation between Activity and Company">
<path fill="none" stroke="#1e88e5" stroke-dasharray="5,2" d="M821.79,-1771.84C814.34,-1765.67 806.85,-1759.45 799.72,-1753.5 753.88,-1715.25 703.08,-1672.46 661.08,-1636.97"/>
<polygon fill="#1e88e5" stroke="#1e88e5" points="663.59,-1634.5 653.69,-1630.72 659.07,-1639.85 663.59,-1634.5"/>
</a>
</g>
<text text-anchor="middle" x="819.22" y="-1744" font-family="Roboto" font-size="10.00">company</text>
</g>
<!-- Project -->
<g id="node3" class="node">
<title>Project</title>
<g id="a_node3"><a xlink:href="http://Project_details.html" xlink:title="&lt;TABLE&gt;">
<polygon fill="#3f51b5" stroke="none" points="547.72,-599.25 547.72,-619.25 719.72,-619.25 719.72,-599.25 547.72,-599.25"/>
<polygon fill="none" stroke="black" points="547.72,-599.25 547.72,-619.25 719.72,-619.25 719.72,-599.25 547.72,-599.25"/>
<text text-anchor="start" x="615.34" y="-604.85" font-family="Roboto" font-size="12.00" fill="white">Project</text>
<polygon fill="#bbdefb" stroke="none" points="547.72,-579.25 547.72,-599.25 639.72,-599.25 639.72,-579.25 547.72,-579.25"/>
<polygon fill="none" stroke="black" points="547.72,-579.25 547.72,-599.25 639.72,-599.25 639.72,-579.25 547.72,-579.25"/>
<text text-anchor="start" x="588.84" y="-584.85" font-family="Roboto" font-size="12.00">id</text>
<polygon fill="#bbdefb" stroke="none" points="639.72,-579.25 639.72,-599.25 719.72,-599.25 719.72,-579.25 639.72,-579.25"/>
<polygon fill="none" stroke="black" points="639.72,-579.25 639.72,-599.25 719.72,-599.25 719.72,-579.25 639.72,-579.25"/>
<text text-anchor="start" x="642.59" y="-584.85" font-family="Roboto" font-size="12.00">INTEGER (PK)</text>
<polygon fill="#bbdefb" stroke="none" points="547.72,-559.25 547.72,-579.25 639.72,-579.25 639.72,-559.25 547.72,-559.25"/>
<polygon fill="none" stroke="black" points="547.72,-559.25 547.72,-579.25 639.72,-579.25 639.72,-559.25 547.72,-559.25"/>
<text text-anchor="start" x="578.72" y="-564.85" font-family="Roboto" font-size="12.00">name</text>
<polygon fill="#bbdefb" stroke="none" points="639.72,-559.25 639.72,-579.25 719.72,-579.25 719.72,-559.25 639.72,-559.25"/>
<polygon fill="none" stroke="black" points="639.72,-559.25 639.72,-579.25 719.72,-579.25 719.72,-559.25 639.72,-559.25"/>
<text text-anchor="start" x="647.47" y="-564.85" font-family="Roboto" font-size="12.00">VARCHAR ()</text>
<polygon fill="#bbdefb" stroke="none" points="547.72,-539.25 547.72,-559.25 639.72,-559.25 639.72,-539.25 547.72,-539.25"/>
<polygon fill="none" stroke="black" points="547.72,-539.25 547.72,-559.25 639.72,-559.25 639.72,-539.25 547.72,-539.25"/>
<text text-anchor="start" x="579.09" y="-544.85" font-family="Roboto" font-size="12.00">street</text>
<polygon fill="#bbdefb" stroke="none" points="639.72,-539.25 639.72,-559.25 719.72,-559.25 719.72,-539.25 639.72,-539.25"/>
<polygon fill="none" stroke="black" points="639.72,-539.25 639.72,-559.25 719.72,-559.25 719.72,-539.25 639.72,-539.25"/>
<text text-anchor="start" x="647.47" y="-544.85" font-family="Roboto" font-size="12.00">VARCHAR ()</text>
<polygon fill="#bbdefb" stroke="none" points="547.72,-519.25 547.72,-539.25 639.72,-539.25 639.72,-519.25 547.72,-519.25"/>
<polygon fill="none" stroke="black" points="547.72,-519.25 547.72,-539.25 639.72,-539.25 639.72,-519.25 547.72,-519.25"/>
<text text-anchor="start" x="569.34" y="-524.85" font-family="Roboto" font-size="12.00">postcode</text>
<polygon fill="#bbdefb" stroke="none" points="639.72,-519.25 639.72,-539.25 719.72,-539.25 719.72,-519.25 639.72,-519.25"/>
<polygon fill="none" stroke="black" points="639.72,-519.25 639.72,-539.25 719.72,-539.25 719.72,-519.25 639.72,-519.25"/>
<text text-anchor="start" x="647.47" y="-524.85" font-family="Roboto" font-size="12.00">VARCHAR ()</text>
<polygon fill="#bbdefb" stroke="none" points="547.72,-499.25 547.72,-519.25 639.72,-519.25 639.72,-499.25 547.72,-499.25"/>
<polygon fill="none" stroke="black" points="547.72,-499.25 547.72,-519.25 639.72,-519.25 639.72,-499.25 547.72,-499.25"/>
<text text-anchor="start" x="584.34" y="-504.85" font-family="Roboto" font-size="12.00">city</text>
<polygon fill="#bbdefb" stroke="none" points="639.72,-499.25 639.72,-519.25 719.72,-519.25 719.72,-499.25 639.72,-499.25"/>
<polygon fill="none" stroke="black" points="639.72,-499.25 639.72,-519.25 719.72,-519.25 719.72,-499.25 639.72,-499.25"/>
<text text-anchor="start" x="647.47" y="-504.85" font-family="Roboto" font-size="12.00">VARCHAR ()</text>
<polygon fill="#bbdefb" stroke="none" points="547.72,-479.25 547.72,-499.25 639.72,-499.25 639.72,-479.25 547.72,-479.25"/>
<polygon fill="none" stroke="black" points="547.72,-479.25 547.72,-499.25 639.72,-499.25 639.72,-479.25 547.72,-479.25"/>
<text text-anchor="start" x="563.34" y="-484.85" font-family="Roboto" font-size="12.00">subdivision</text>
<polygon fill="#bbdefb" stroke="none" points="639.72,-479.25 639.72,-499.25 719.72,-499.25 719.72,-479.25 639.72,-479.25"/>
<polygon fill="none" stroke="black" points="639.72,-479.25 639.72,-499.25 719.72,-499.25 719.72,-479.25 639.72,-479.25"/>
<text text-anchor="start" x="647.47" y="-484.85" font-family="Roboto" font-size="12.00">VARCHAR ()</text>
<polygon fill="#bbdefb" stroke="none" points="547.72,-459.25 547.72,-479.25 639.72,-479.25 639.72,-459.25 547.72,-459.25"/>
<polygon fill="none" stroke="black" points="547.72,-459.25 547.72,-479.25 639.72,-479.25 639.72,-459.25 547.72,-459.25"/>
<text text-anchor="start" x="573.84" y="-464.85" font-family="Roboto" font-size="12.00">country</text>
<polygon fill="#bbdefb" stroke="none" points="639.72,-459.25 639.72,-479.25 719.72,-479.25 719.72,-459.25 639.72,-459.25"/>
<polygon fill="none" stroke="black" points="639.72,-459.25 639.72,-479.25 719.72,-479.25 719.72,-459.25 639.72,-459.25"/>
<text text-anchor="start" x="647.47" y="-464.85" font-family="Roboto" font-size="12.00">VARCHAR ()</text>
<polygon fill="#bbdefb" stroke="none" points="547.72,-439.25 547.72,-459.25 639.72,-459.25 639.72,-439.25 547.72,-439.25"/>
<polygon fill="none" stroke="black" points="547.72,-439.25 547.72,-459.25 639.72,-459.25 639.72,-439.25 547.72,-439.25"/>
<text text-anchor="start" x="573.84" y="-444.85" font-family="Roboto" font-size="12.00">latitude</text>
<polygon fill="#bbdefb" stroke="none" points="639.72,-439.25 639.72,-459.25 719.72,-459.25 719.72,-439.25 639.72,-439.25"/>
<polygon fill="none" stroke="black" points="639.72,-439.25 639.72,-459.25 719.72,-459.25 719.72,-439.25 639.72,-439.25"/>
<text text-anchor="start" x="655.72" y="-444.85" font-family="Roboto" font-size="12.00">FLOAT ()</text>
<polygon fill="#bbdefb" stroke="none" points="547.72,-419.25 547.72,-439.25 639.72,-439.25 639.72,-419.25 547.72,-419.25"/>
<polygon fill="none" stroke="black" points="547.72,-419.25 547.72,-439.25 639.72,-439.25 639.72,-419.25 547.72,-419.25"/>
<text text-anchor="start" x="568.97" y="-424.85" font-family="Roboto" font-size="12.00">longitude</text>
<polygon fill="#bbdefb" stroke="none" points="639.72,-419.25 639.72,-439.25 719.72,-439.25 719.72,-419.25 639.72,-419.25"/>
<polygon fill="none" stroke="black" points="639.72,-419.25 639.72,-439.25 719.72,-439.25 719.72,-419.25 639.72,-419.25"/>
<text text-anchor="start" x="655.72" y="-424.85" font-family="Roboto" font-size="12.00">FLOAT ()</text>
<polygon fill="#bbdefb" stroke="none" points="547.72,-399.25 547.72,-419.25 639.72,-419.25 639.72,-399.25 547.72,-399.25"/>
<polygon fill="none" stroke="black" points="547.72,-399.25 547.72,-419.25 639.72,-419.25 639.72,-399.25 547.72,-399.25"/>
<text text-anchor="start" x="573.47" y="-404.85" font-family="Roboto" font-size="12.00">website</text>
<polygon fill="#bbdefb" stroke="none" points="639.72,-399.25 639.72,-419.25 719.72,-419.25 719.72,-399.25 639.72,-399.25"/>
<polygon fill="none" stroke="black" points="639.72,-399.25 639.72,-419.25 719.72,-419.25 719.72,-399.25 639.72,-399.25"/>
<text text-anchor="start" x="647.47" y="-404.85" font-family="Roboto" font-size="12.00">VARCHAR ()</text>
<polygon fill="#bbdefb" stroke="none" points="547.72,-379.25 547.72,-399.25 639.72,-399.25 639.72,-379.25 547.72,-379.25"/>
<polygon fill="none" stroke="black" points="547.72,-379.25 547.72,-399.25 639.72,-399.25 639.72,-379.25 547.72,-379.25"/>
<text text-anchor="start" x="580.59" y="-384.85" font-family="Roboto" font-size="12.00">color</text>
<polygon fill="#bbdefb" stroke="none" points="639.72,-379.25 639.72,-399.25 719.72,-399.25 719.72,-379.25 639.72,-379.25"/>
<polygon fill="none" stroke="black" points="639.72,-379.25 639.72,-399.25 719.72,-399.25 719.72,-379.25 639.72,-379.25"/>
<text text-anchor="start" x="647.47" y="-384.85" font-family="Roboto" font-size="12.00">VARCHAR ()</text>
<polygon fill="#bbdefb" stroke="none" points="547.72,-359.25 547.72,-379.25 639.72,-379.25 639.72,-359.25 547.72,-359.25"/>
<polygon fill="none" stroke="black" points="547.72,-359.25 547.72,-379.25 639.72,-379.25 639.72,-359.25 547.72,-359.25"/>
<text text-anchor="start" x="571.22" y="-364.85" font-family="Roboto" font-size="12.00">deadline</text>
<polygon fill="#bbdefb" stroke="none" points="639.72,-359.25 639.72,-379.25 719.72,-379.25 719.72,-359.25 639.72,-359.25"/>
<polygon fill="none" stroke="black" points="639.72,-359.25 639.72,-379.25 719.72,-379.25 719.72,-359.25 639.72,-359.25"/>
<text text-anchor="start" x="645.22" y="-364.85" font-family="Roboto" font-size="12.00">DATETIME ()</text>
<polygon fill="#bbdefb" stroke="none" points="547.72,-339.25 547.72,-359.25 639.72,-359.25 639.72,-339.25 547.72,-339.25"/>
<polygon fill="none" stroke="black" points="547.72,-339.25 547.72,-359.25 639.72,-359.25 639.72,-339.25 547.72,-339.25"/>
<text text-anchor="start" x="579.09" y="-344.85" font-family="Roboto" font-size="12.00">stage</text>
<polygon fill="#bbdefb" stroke="none" points="639.72,-339.25 639.72,-359.25 719.72,-359.25 719.72,-339.25 639.72,-339.25"/>
<polygon fill="none" stroke="black" points="639.72,-339.25 639.72,-359.25 719.72,-359.25 719.72,-339.25 639.72,-339.25"/>
<text text-anchor="start" x="647.47" y="-344.85" font-family="Roboto" font-size="12.00">VARCHAR ()</text>
<polygon fill="#bbdefb" stroke="none" points="547.72,-319.25 547.72,-339.25 639.72,-339.25 639.72,-319.25 547.72,-319.25"/>
<polygon fill="none" stroke="black" points="547.72,-319.25 547.72,-339.25 639.72,-339.25 639.72,-319.25 547.72,-319.25"/>
<text text-anchor="start" x="550.59" y="-324.85" font-family="Roboto" font-size="12.00">delivery_method</text>
<polygon fill="#bbdefb" stroke="none" points="639.72,-319.25 639.72,-339.25 719.72,-339.25 719.72,-319.25 639.72,-319.25"/>
<polygon fill="none" stroke="black" points="639.72,-319.25 639.72,-339.25 719.72,-339.25 719.72,-319.25 639.72,-319.25"/>
<text text-anchor="start" x="647.47" y="-324.85" font-family="Roboto" font-size="12.00">VARCHAR ()</text>
<polygon fill="#bbdefb" stroke="none" points="547.72,-299.25 547.72,-319.25 639.72,-319.25 639.72,-299.25 547.72,-299.25"/>
<polygon fill="none" stroke="black" points="547.72,-299.25 547.72,-319.25 639.72,-319.25 639.72,-299.25 547.72,-299.25"/>
<text text-anchor="start" x="566.34" y="-304.85" font-family="Roboto" font-size="12.00">created_at</text>
<polygon fill="#bbdefb" stroke="none" points="639.72,-299.25 639.72,-319.25 719.72,-319.25 719.72,-299.25 639.72,-299.25"/>
<polygon fill="none" stroke="black" points="639.72,-299.25 639.72,-319.25 719.72,-319.25 719.72,-299.25 639.72,-299.25"/>
<text text-anchor="start" x="645.22" y="-304.85" font-family="Roboto" font-size="12.00">DATETIME ()</text>
<polygon fill="#bbdefb" stroke="none" points="547.72,-279.25 547.72,-299.25 639.72,-299.25 639.72,-279.25 547.72,-279.25"/>
<polygon fill="none" stroke="black" points="547.72,-279.25 547.72,-299.25 639.72,-299.25 639.72,-279.25 547.72,-279.25"/>
<text text-anchor="start" x="564.09" y="-284.85" font-family="Roboto" font-size="12.00">updated_at</text>
<polygon fill="#bbdefb" stroke="none" points="639.72,-279.25 639.72,-299.25 719.72,-299.25 719.72,-279.25 639.72,-279.25"/>
<polygon fill="none" stroke="black" points="639.72,-279.25 639.72,-299.25 719.72,-299.25 719.72,-279.25 639.72,-279.25"/>
<text text-anchor="start" x="645.22" y="-284.85" font-family="Roboto" font-size="12.00">DATETIME ()</text>
<polygon fill="#bbdefb" stroke="none" points="547.72,-259.25 547.72,-279.25 639.72,-279.25 639.72,-259.25 547.72,-259.25"/>
<polygon fill="none" stroke="black" points="547.72,-259.25 547.72,-279.25 639.72,-279.25 639.72,-259.25 547.72,-259.25"/>
<text text-anchor="start" x="567.84" y="-264.85" font-family="Roboto" font-size="12.00">creator_id</text>
<polygon fill="#bbdefb" stroke="none" points="639.72,-259.25 639.72,-279.25 719.72,-279.25 719.72,-259.25 639.72,-259.25"/>
<polygon fill="none" stroke="black" points="639.72,-259.25 639.72,-279.25 719.72,-279.25 719.72,-259.25 639.72,-259.25"/>
<text text-anchor="start" x="650.09" y="-264.85" font-family="Roboto" font-size="12.00">INTEGER ()</text>
<polygon fill="#bbdefb" stroke="none" points="547.72,-239.25 547.72,-259.25 639.72,-259.25 639.72,-239.25 547.72,-239.25"/>
<polygon fill="none" stroke="black" points="547.72,-239.25 547.72,-259.25 639.72,-259.25 639.72,-239.25 547.72,-239.25"/>
<text text-anchor="start" x="571.22" y="-244.85" font-family="Roboto" font-size="12.00">editor_id</text>
<polygon fill="#bbdefb" stroke="none" points="639.72,-239.25 639.72,-259.25 719.72,-259.25 719.72,-239.25 639.72,-239.25"/>
<polygon fill="none" stroke="black" points="639.72,-239.25 639.72,-259.25 719.72,-259.25 719.72,-239.25 639.72,-239.25"/>
<text text-anchor="start" x="650.09" y="-244.85" font-family="Roboto" font-size="12.00">INTEGER ()</text>
</a>
</g>
</g>
<!-- Activity&#45;&gt;Project -->
<g id="edge2" class="edge">
<title>Activity&#45;&gt;Project</title>
<g id="a_edge2"><a xlink:title="Relation between Activity and Project">
<path fill="none" stroke="#1e88e5" stroke-dasharray="5,2" d="M894.11,-1771.8C924.31,-1579.82 1023.9,-924.52 990.72,-836.5 940.08,-702.16 822.57,-583.36 736.14,-509.47"/>
<polygon fill="#1e88e5" stroke="#1e88e5" points="738.65,-507.02 728.76,-503.22 734.13,-512.36 738.65,-507.02"/>
</a>
</g>
<text text-anchor="middle" x="1002.34" y="-1073.5" font-family="Roboto" font-size="10.00">project</text>
</g>
<!-- Company&#45;&gt;Activity -->
<g id="edge11" class="edge">
<title>Company&#45;&gt;Activity</title>
<g id="a_edge11"><a xlink:title="Relation between Company and Activity">
<path fill="none" stroke="#1e88e5" stroke-dasharray="5,2" d="M652.47,-1602.94C709.51,-1635.29 785.06,-1684.32 838.72,-1742.25 844.25,-1748.22 849.4,-1754.96 854.11,-1761.95"/>
<polygon fill="#1e88e5" stroke="#1e88e5" points="851.11,-1763.75 859.44,-1770.3 857.01,-1759.98 851.11,-1763.75"/>
</a>
</g>
<text text-anchor="middle" x="864.97" y="-1744" font-family="Roboto" font-size="10.00">projects</text>
</g>
<!-- Comment -->
<g id="node4" class="node">
<title>Comment</title>
<g id="a_node4"><a xlink:href="http://Comment_details.html" xlink:title="&lt;TABLE&gt;">
<polygon fill="#3f51b5" stroke="none" points="558.72,-164 558.72,-184 708.72,-184 708.72,-164 558.72,-164"/>
<polygon fill="none" stroke="black" points="558.72,-164 558.72,-184 708.72,-184 708.72,-164 558.72,-164"/>
<text text-anchor="start" x="607.84" y="-169.6" font-family="Roboto" font-size="12.00" fill="white">Comment</text>
<polygon fill="#bbdefb" stroke="none" points="558.72,-144 558.72,-164 628.72,-164 628.72,-144 558.72,-144"/>
<polygon fill="none" stroke="black" points="558.72,-144 558.72,-164 628.72,-164 628.72,-144 558.72,-144"/>
<text text-anchor="start" x="588.84" y="-149.6" font-family="Roboto" font-size="12.00">id</text>
<polygon fill="#bbdefb" stroke="none" points="628.72,-144 628.72,-164 708.72,-164 708.72,-144 628.72,-144"/>
<polygon fill="none" stroke="black" points="628.72,-144 628.72,-164 708.72,-164 708.72,-144 628.72,-144"/>
<text text-anchor="start" x="631.59" y="-149.6" font-family="Roboto" font-size="12.00">INTEGER (PK)</text>
<polygon fill="#bbdefb" stroke="none" points="558.72,-124 558.72,-144 628.72,-144 628.72,-124 558.72,-124"/>
<polygon fill="none" stroke="black" points="558.72,-124 558.72,-144 628.72,-144 628.72,-124 558.72,-124"/>
<text text-anchor="start" x="568.59" y="-129.6" font-family="Roboto" font-size="12.00">comment</text>
<polygon fill="#bbdefb" stroke="none" points="628.72,-124 628.72,-144 708.72,-144 708.72,-124 628.72,-124"/>
<polygon fill="none" stroke="black" points="628.72,-124 628.72,-144 708.72,-144 708.72,-124 628.72,-124"/>
<text text-anchor="start" x="636.47" y="-129.6" font-family="Roboto" font-size="12.00">VARCHAR ()</text>
<polygon fill="#bbdefb" stroke="none" points="558.72,-104 558.72,-124 628.72,-124 628.72,-104 558.72,-104"/>
<polygon fill="none" stroke="black" points="558.72,-104 558.72,-124 628.72,-124 628.72,-104 558.72,-104"/>
<text text-anchor="start" x="566.34" y="-109.6" font-family="Roboto" font-size="12.00">created_at</text>
<polygon fill="#bbdefb" stroke="none" points="628.72,-104 628.72,-124 708.72,-124 708.72,-104 628.72,-104"/>
<polygon fill="none" stroke="black" points="628.72,-104 628.72,-124 708.72,-124 708.72,-104 628.72,-104"/>
<text text-anchor="start" x="634.22" y="-109.6" font-family="Roboto" font-size="12.00">DATETIME ()</text>
<polygon fill="#bbdefb" stroke="none" points="558.72,-84 558.72,-104 628.72,-104 628.72,-84 558.72,-84"/>
<polygon fill="none" stroke="black" points="558.72,-84 558.72,-104 628.72,-104 628.72,-84 558.72,-84"/>
<text text-anchor="start" x="564.09" y="-89.6" font-family="Roboto" font-size="12.00">updated_at</text>
<polygon fill="#bbdefb" stroke="none" points="628.72,-84 628.72,-104 708.72,-104 708.72,-84 628.72,-84"/>
<polygon fill="none" stroke="black" points="628.72,-84 628.72,-104 708.72,-104 708.72,-84 628.72,-84"/>
<text text-anchor="start" x="634.22" y="-89.6" font-family="Roboto" font-size="12.00">DATETIME ()</text>
<polygon fill="#bbdefb" stroke="none" points="558.72,-64 558.72,-84 628.72,-84 628.72,-64 558.72,-64"/>
<polygon fill="none" stroke="black" points="558.72,-64 558.72,-84 628.72,-84 628.72,-64 558.72,-64"/>
<text text-anchor="start" x="567.84" y="-69.6" font-family="Roboto" font-size="12.00">creator_id</text>
<polygon fill="#bbdefb" stroke="none" points="628.72,-64 628.72,-84 708.72,-84 708.72,-64 628.72,-64"/>
<polygon fill="none" stroke="black" points="628.72,-64 628.72,-84 708.72,-84 708.72,-64 628.72,-64"/>
<text text-anchor="start" x="639.09" y="-69.6" font-family="Roboto" font-size="12.00">INTEGER ()</text>
<polygon fill="#bbdefb" stroke="none" points="558.72,-44 558.72,-64 628.72,-64 628.72,-44 558.72,-44"/>
<polygon fill="none" stroke="black" points="558.72,-44 558.72,-64 628.72,-64 628.72,-44 558.72,-44"/>
<text text-anchor="start" x="571.22" y="-49.6" font-family="Roboto" font-size="12.00">editor_id</text>
<polygon fill="#bbdefb" stroke="none" points="628.72,-44 628.72,-64 708.72,-64 708.72,-44 628.72,-44"/>
<polygon fill="none" stroke="black" points="628.72,-44 628.72,-64 708.72,-64 708.72,-44 628.72,-44"/>
<text text-anchor="start" x="639.09" y="-49.6" font-family="Roboto" font-size="12.00">INTEGER ()</text>
<polygon fill="#bbdefb" stroke="none" points="558.72,-24 558.72,-44 628.72,-44 628.72,-24 558.72,-24"/>
<polygon fill="none" stroke="black" points="558.72,-24 558.72,-44 628.72,-44 628.72,-24 558.72,-24"/>
<text text-anchor="start" x="561.47" y="-29.6" font-family="Roboto" font-size="12.00">company_id</text>
<polygon fill="#bbdefb" stroke="none" points="628.72,-24 628.72,-44 708.72,-44 708.72,-24 628.72,-24"/>
<polygon fill="none" stroke="black" points="628.72,-24 628.72,-44 708.72,-44 708.72,-24 628.72,-24"/>
<text text-anchor="start" x="639.09" y="-29.6" font-family="Roboto" font-size="12.00">INTEGER ()</text>
<polygon fill="#bbdefb" stroke="none" points="558.72,-4 558.72,-24 628.72,-24 628.72,-4 558.72,-4"/>
<polygon fill="none" stroke="black" points="558.72,-4 558.72,-24 628.72,-24 628.72,-4 558.72,-4"/>
<text text-anchor="start" x="568.22" y="-9.6" font-family="Roboto" font-size="12.00">project_id</text>
<polygon fill="#bbdefb" stroke="none" points="628.72,-4 628.72,-24 708.72,-24 708.72,-4 628.72,-4"/>
<polygon fill="none" stroke="black" points="628.72,-4 628.72,-24 708.72,-24 708.72,-4 628.72,-4"/>
<text text-anchor="start" x="639.09" y="-9.6" font-family="Roboto" font-size="12.00">INTEGER ()</text>
</a>
</g>
</g>
<!-- Company&#45;&gt;Comment -->
<g id="edge13" class="edge">
<title>Company&#45;&gt;Comment</title>
<g id="a_edge13"><a xlink:title="Relation between Company and Comment">
<path fill="none" stroke="#1e88e5" stroke-dasharray="5,2" d="M652.54,-1537.14C736.03,-1509.18 860.34,-1451.8 905.72,-1349 995.88,-1144.72 932.16,-1070.91 939.72,-847.75 948.94,-575.44 1061.86,-463.93 913.72,-235.25 872.08,-170.98 791.5,-134.97 727.43,-115.59"/>
<polygon fill="#1e88e5" stroke="#1e88e5" points="728.52,-112.26 717.94,-112.81 726.56,-118.98 728.52,-112.26"/>
</a>
</g>
<text text-anchor="middle" x="963.59" y="-838.25" font-family="Roboto" font-size="10.00">comments</text>
</g>
<!-- User -->
<g id="node5" class="node">
<title>User</title>
<g id="a_node5"><a xlink:href="http://User_details.html" xlink:title="&lt;TABLE&gt;">
<polygon fill="#3f51b5" stroke="none" points="359.72,-1029.75 359.72,-1049.75 531.72,-1049.75 531.72,-1029.75 359.72,-1029.75"/>
<polygon fill="none" stroke="black" points="359.72,-1029.75 359.72,-1049.75 531.72,-1049.75 531.72,-1029.75 359.72,-1029.75"/>
<text text-anchor="start" x="434.09" y="-1035.35" font-family="Roboto" font-size="12.00" fill="white">User</text>
<polygon fill="#bbdefb" stroke="none" points="359.72,-1009.75 359.72,-1029.75 424.72,-1029.75 424.72,-1009.75 359.72,-1009.75"/>
<polygon fill="none" stroke="black" points="359.72,-1009.75 359.72,-1029.75 424.72,-1029.75 424.72,-1009.75 359.72,-1009.75"/>
<text text-anchor="start" x="387.34" y="-1015.35" font-family="Roboto" font-size="12.00">id</text>
<polygon fill="#bbdefb" stroke="none" points="424.72,-1009.75 424.72,-1029.75 531.72,-1029.75 531.72,-1009.75 424.72,-1009.75"/>
<polygon fill="none" stroke="black" points="424.72,-1009.75 424.72,-1029.75 531.72,-1029.75 531.72,-1009.75 424.72,-1009.75"/>
<text text-anchor="start" x="441.09" y="-1015.35" font-family="Roboto" font-size="12.00">INTEGER (PK)</text>
<polygon fill="#bbdefb" stroke="none" points="359.72,-989.75 359.72,-1009.75 424.72,-1009.75 424.72,-989.75 359.72,-989.75"/>
<polygon fill="none" stroke="black" points="359.72,-989.75 359.72,-1009.75 424.72,-1009.75 424.72,-989.75 359.72,-989.75"/>
<text text-anchor="start" x="377.22" y="-995.35" font-family="Roboto" font-size="12.00">name</text>
<polygon fill="#bbdefb" stroke="none" points="424.72,-989.75 424.72,-1009.75 531.72,-1009.75 531.72,-989.75 424.72,-989.75"/>
<polygon fill="none" stroke="black" points="424.72,-989.75 424.72,-1009.75 531.72,-1009.75 531.72,-989.75 424.72,-989.75"/>
<text text-anchor="start" x="427.59" y="-995.35" font-family="Roboto" font-size="12.00">VARCHAR (Unique)</text>
<polygon fill="#bbdefb" stroke="none" points="359.72,-969.75 359.72,-989.75 424.72,-989.75 424.72,-969.75 359.72,-969.75"/>
<polygon fill="none" stroke="black" points="359.72,-969.75 359.72,-989.75 424.72,-989.75 424.72,-969.75 359.72,-969.75"/>
<text text-anchor="start" x="368.59" y="-975.35" font-family="Roboto" font-size="12.00">fullname</text>
<polygon fill="#bbdefb" stroke="none" points="424.72,-969.75 424.72,-989.75 531.72,-989.75 531.72,-969.75 424.72,-969.75"/>
<polygon fill="none" stroke="black" points="424.72,-969.75 424.72,-989.75 531.72,-989.75 531.72,-969.75 424.72,-969.75"/>
<text text-anchor="start" x="445.97" y="-975.35" font-family="Roboto" font-size="12.00">VARCHAR ()</text>
<polygon fill="#bbdefb" stroke="none" points="359.72,-949.75 359.72,-969.75 424.72,-969.75 424.72,-949.75 359.72,-949.75"/>
<polygon fill="none" stroke="black" points="359.72,-949.75 359.72,-969.75 424.72,-969.75 424.72,-949.75 359.72,-949.75"/>
<text text-anchor="start" x="377.59" y="-955.35" font-family="Roboto" font-size="12.00">email</text>
<polygon fill="#bbdefb" stroke="none" points="424.72,-949.75 424.72,-969.75 531.72,-969.75 531.72,-949.75 424.72,-949.75"/>
<polygon fill="none" stroke="black" points="424.72,-949.75 424.72,-969.75 531.72,-969.75 531.72,-949.75 424.72,-949.75"/>
<text text-anchor="start" x="445.97" y="-955.35" font-family="Roboto" font-size="12.00">VARCHAR ()</text>
<polygon fill="#bbdefb" stroke="none" points="359.72,-929.75 359.72,-949.75 424.72,-949.75 424.72,-929.75 359.72,-929.75"/>
<polygon fill="none" stroke="black" points="359.72,-929.75 359.72,-949.75 424.72,-949.75 424.72,-929.75 359.72,-929.75"/>
<text text-anchor="start" x="382.47" y="-935.35" font-family="Roboto" font-size="12.00">role</text>
<polygon fill="#bbdefb" stroke="none" points="424.72,-929.75 424.72,-949.75 531.72,-949.75 531.72,-929.75 424.72,-929.75"/>
<polygon fill="none" stroke="black" points="424.72,-929.75 424.72,-949.75 531.72,-949.75 531.72,-929.75 424.72,-929.75"/>
<text text-anchor="start" x="445.97" y="-935.35" font-family="Roboto" font-size="12.00">VARCHAR ()</text>
<polygon fill="#bbdefb" stroke="none" points="359.72,-909.75 359.72,-929.75 424.72,-929.75 424.72,-909.75 359.72,-909.75"/>
<polygon fill="none" stroke="black" points="359.72,-909.75 359.72,-929.75 424.72,-929.75 424.72,-909.75 359.72,-909.75"/>
<text text-anchor="start" x="366.34" y="-915.35" font-family="Roboto" font-size="12.00">password</text>
<polygon fill="#bbdefb" stroke="none" points="424.72,-909.75 424.72,-929.75 531.72,-929.75 531.72,-909.75 424.72,-909.75"/>
<polygon fill="none" stroke="black" points="424.72,-909.75 424.72,-929.75 531.72,-929.75 531.72,-909.75 424.72,-909.75"/>
<text text-anchor="start" x="445.97" y="-915.35" font-family="Roboto" font-size="12.00">VARCHAR ()</text>
<polygon fill="#bbdefb" stroke="none" points="359.72,-889.75 359.72,-909.75 424.72,-909.75 424.72,-889.75 359.72,-889.75"/>
<polygon fill="none" stroke="black" points="359.72,-889.75 359.72,-909.75 424.72,-909.75 424.72,-889.75 359.72,-889.75"/>
<text text-anchor="start" x="364.84" y="-895.35" font-family="Roboto" font-size="12.00">created_at</text>
<polygon fill="#bbdefb" stroke="none" points="424.72,-889.75 424.72,-909.75 531.72,-909.75 531.72,-889.75 424.72,-889.75"/>
<polygon fill="none" stroke="black" points="424.72,-889.75 424.72,-909.75 531.72,-909.75 531.72,-889.75 424.72,-889.75"/>
<text text-anchor="start" x="443.72" y="-895.35" font-family="Roboto" font-size="12.00">DATETIME ()</text>
<polygon fill="#bbdefb" stroke="none" points="359.72,-869.75 359.72,-889.75 424.72,-889.75 424.72,-869.75 359.72,-869.75"/>
<polygon fill="none" stroke="black" points="359.72,-869.75 359.72,-889.75 424.72,-889.75 424.72,-869.75 359.72,-869.75"/>
<text text-anchor="start" x="362.59" y="-875.35" font-family="Roboto" font-size="12.00">updated_at</text>
<polygon fill="#bbdefb" stroke="none" points="424.72,-869.75 424.72,-889.75 531.72,-889.75 531.72,-869.75 424.72,-869.75"/>
<polygon fill="none" stroke="black" points="424.72,-869.75 424.72,-889.75 531.72,-889.75 531.72,-869.75 424.72,-869.75"/>
<text text-anchor="start" x="443.72" y="-875.35" font-family="Roboto" font-size="12.00">DATETIME ()</text>
</a>
</g>
</g>
<!-- Company&#45;&gt;User -->
<g id="edge8" class="edge">
<title>Company&#45;&gt;User</title>
<g id="a_edge8"><a xlink:title="Relation between Company and User">
<path fill="none" stroke="#1e88e5" stroke-dasharray="5,2" d="M549.34,-1396.4C533.74,-1287.91 513.22,-1155.6 498.72,-1101 495.51,-1088.94 491.65,-1076.47 487.49,-1064.18"/>
<polygon fill="#1e88e5" stroke="#1e88e5" points="490.84,-1063.16 484.26,-1054.86 484.23,-1065.46 490.84,-1063.16"/>
</a>
</g>
<text text-anchor="middle" x="565.97" y="-1221.12" font-family="Roboto" font-size="10.00">created_by</text>
</g>
<!-- Company&#45;&gt;User -->
<g id="edge9" class="edge">
<title>Company&#45;&gt;User</title>
<g id="a_edge9"><a xlink:title="Relation between Company and User">
<path fill="none" stroke="#1e88e5" stroke-dasharray="5,2" d="M490.76,-1448.96C472.4,-1418.11 455.52,-1383.54 445.97,-1349 420.06,-1255.31 423.26,-1143.96 431,-1064.59"/>
<polygon fill="#1e88e5" stroke="#1e88e5" points="434.43,-1065.42 431.96,-1055.11 427.47,-1064.71 434.43,-1065.42"/>
</a>
</g>
<text text-anchor="middle" x="471.09" y="-1221.12" font-family="Roboto" font-size="10.00">updated_by</text>
</g>
<!-- IdentificationNumber -->
<g id="node6" class="node">
<title>IdentificationNumber</title>
<g id="a_node6"><a xlink:href="http://IdentificationNumber_details.html" xlink:title="&lt;TABLE&gt;">
<polygon fill="#3f51b5" stroke="none" points="126.72,-1315 126.72,-1335 276.72,-1335 276.72,-1315 126.72,-1315"/>
<polygon fill="none" stroke="black" points="126.72,-1315 126.72,-1335 276.72,-1335 276.72,-1315 126.72,-1315"/>
<text text-anchor="start" x="145.84" y="-1320.6" font-family="Roboto" font-size="12.00" fill="white">IdentificationNumber</text>
<polygon fill="#bbdefb" stroke="none" points="126.72,-1295 126.72,-1315 196.72,-1315 196.72,-1295 126.72,-1295"/>
<polygon fill="none" stroke="black" points="126.72,-1295 126.72,-1315 196.72,-1315 196.72,-1295 126.72,-1295"/>
<text text-anchor="start" x="156.84" y="-1300.6" font-family="Roboto" font-size="12.00">id</text>
<polygon fill="#bbdefb" stroke="none" points="196.72,-1295 196.72,-1315 276.72,-1315 276.72,-1295 196.72,-1295"/>
<polygon fill="none" stroke="black" points="196.72,-1295 196.72,-1315 276.72,-1315 276.72,-1295 196.72,-1295"/>
<text text-anchor="start" x="199.59" y="-1300.6" font-family="Roboto" font-size="12.00">INTEGER (PK)</text>
<polygon fill="#bbdefb" stroke="none" points="126.72,-1275 126.72,-1295 196.72,-1295 196.72,-1275 126.72,-1275"/>
<polygon fill="none" stroke="black" points="126.72,-1275 126.72,-1295 196.72,-1295 196.72,-1275 126.72,-1275"/>
<text text-anchor="start" x="152.34" y="-1280.6" font-family="Roboto" font-size="12.00">NIP</text>
<polygon fill="#bbdefb" stroke="none" points="196.72,-1275 196.72,-1295 276.72,-1295 276.72,-1275 196.72,-1275"/>
<polygon fill="none" stroke="black" points="196.72,-1275 196.72,-1295 276.72,-1295 276.72,-1275 196.72,-1275"/>
<text text-anchor="start" x="204.47" y="-1280.6" font-family="Roboto" font-size="12.00">VARCHAR ()</text>
<polygon fill="#bbdefb" stroke="none" points="126.72,-1255 126.72,-1275 196.72,-1275 196.72,-1255 126.72,-1255"/>
<polygon fill="none" stroke="black" points="126.72,-1255 126.72,-1275 196.72,-1275 196.72,-1255 126.72,-1255"/>
<text text-anchor="start" x="142.22" y="-1260.6" font-family="Roboto" font-size="12.00">REGON</text>
<polygon fill="#bbdefb" stroke="none" points="196.72,-1255 196.72,-1275 276.72,-1275 276.72,-1255 196.72,-1255"/>
<polygon fill="none" stroke="black" points="196.72,-1255 196.72,-1275 276.72,-1275 276.72,-1255 196.72,-1255"/>
<text text-anchor="start" x="204.47" y="-1260.6" font-family="Roboto" font-size="12.00">VARCHAR ()</text>
<polygon fill="#bbdefb" stroke="none" points="126.72,-1235 126.72,-1255 196.72,-1255 196.72,-1235 126.72,-1235"/>
<polygon fill="none" stroke="black" points="126.72,-1235 126.72,-1255 196.72,-1255 196.72,-1235 126.72,-1235"/>
<text text-anchor="start" x="150.47" y="-1240.6" font-family="Roboto" font-size="12.00">KRS</text>
<polygon fill="#bbdefb" stroke="none" points="196.72,-1235 196.72,-1255 276.72,-1255 276.72,-1235 196.72,-1235"/>
<polygon fill="none" stroke="black" points="196.72,-1235 196.72,-1255 276.72,-1255 276.72,-1235 196.72,-1235"/>
<text text-anchor="start" x="204.47" y="-1240.6" font-family="Roboto" font-size="12.00">VARCHAR ()</text>
<polygon fill="#bbdefb" stroke="none" points="126.72,-1215 126.72,-1235 196.72,-1235 196.72,-1215 126.72,-1215"/>
<polygon fill="none" stroke="black" points="126.72,-1215 126.72,-1235 196.72,-1235 196.72,-1215 126.72,-1215"/>
<text text-anchor="start" x="148.22" y="-1220.6" font-family="Roboto" font-size="12.00">court</text>
<polygon fill="#bbdefb" stroke="none" points="196.72,-1215 196.72,-1235 276.72,-1235 276.72,-1215 196.72,-1215"/>
<polygon fill="none" stroke="black" points="196.72,-1215 196.72,-1235 276.72,-1235 276.72,-1215 196.72,-1215"/>
<text text-anchor="start" x="204.47" y="-1220.6" font-family="Roboto" font-size="12.00">VARCHAR ()</text>
<polygon fill="#bbdefb" stroke="none" points="126.72,-1195 126.72,-1215 196.72,-1215 196.72,-1195 126.72,-1195"/>
<polygon fill="none" stroke="black" points="126.72,-1195 126.72,-1215 196.72,-1215 196.72,-1195 126.72,-1195"/>
<text text-anchor="start" x="134.34" y="-1200.6" font-family="Roboto" font-size="12.00">created_at</text>
<polygon fill="#bbdefb" stroke="none" points="196.72,-1195 196.72,-1215 276.72,-1215 276.72,-1195 196.72,-1195"/>
<polygon fill="none" stroke="black" points="196.72,-1195 196.72,-1215 276.72,-1215 276.72,-1195 196.72,-1195"/>
<text text-anchor="start" x="202.22" y="-1200.6" font-family="Roboto" font-size="12.00">DATETIME ()</text>
<polygon fill="#bbdefb" stroke="none" points="126.72,-1175 126.72,-1195 196.72,-1195 196.72,-1175 126.72,-1175"/>
<polygon fill="none" stroke="black" points="126.72,-1175 126.72,-1195 196.72,-1195 196.72,-1175 126.72,-1175"/>
<text text-anchor="start" x="132.09" y="-1180.6" font-family="Roboto" font-size="12.00">updated_at</text>
<polygon fill="#bbdefb" stroke="none" points="196.72,-1175 196.72,-1195 276.72,-1195 276.72,-1175 196.72,-1175"/>
<polygon fill="none" stroke="black" points="196.72,-1175 196.72,-1195 276.72,-1195 276.72,-1175 196.72,-1175"/>
<text text-anchor="start" x="202.22" y="-1180.6" font-family="Roboto" font-size="12.00">DATETIME ()</text>
<polygon fill="#bbdefb" stroke="none" points="126.72,-1155 126.72,-1175 196.72,-1175 196.72,-1155 126.72,-1155"/>
<polygon fill="none" stroke="black" points="126.72,-1155 126.72,-1175 196.72,-1175 196.72,-1155 126.72,-1155"/>
<text text-anchor="start" x="135.84" y="-1160.6" font-family="Roboto" font-size="12.00">creator_id</text>
<polygon fill="#bbdefb" stroke="none" points="196.72,-1155 196.72,-1175 276.72,-1175 276.72,-1155 196.72,-1155"/>
<polygon fill="none" stroke="black" points="196.72,-1155 196.72,-1175 276.72,-1175 276.72,-1155 196.72,-1155"/>
<text text-anchor="start" x="207.09" y="-1160.6" font-family="Roboto" font-size="12.00">INTEGER ()</text>
<polygon fill="#bbdefb" stroke="none" points="126.72,-1135 126.72,-1155 196.72,-1155 196.72,-1135 126.72,-1135"/>
<polygon fill="none" stroke="black" points="126.72,-1135 126.72,-1155 196.72,-1155 196.72,-1135 126.72,-1135"/>
<text text-anchor="start" x="139.22" y="-1140.6" font-family="Roboto" font-size="12.00">editor_id</text>
<polygon fill="#bbdefb" stroke="none" points="196.72,-1135 196.72,-1155 276.72,-1155 276.72,-1135 196.72,-1135"/>
<polygon fill="none" stroke="black" points="196.72,-1135 196.72,-1155 276.72,-1155 276.72,-1135 196.72,-1135"/>
<text text-anchor="start" x="207.09" y="-1140.6" font-family="Roboto" font-size="12.00">INTEGER ()</text>
<polygon fill="#bbdefb" stroke="none" points="126.72,-1115 126.72,-1135 196.72,-1135 196.72,-1115 126.72,-1115"/>
<polygon fill="none" stroke="black" points="126.72,-1115 126.72,-1135 196.72,-1135 196.72,-1115 126.72,-1115"/>
<text text-anchor="start" x="129.47" y="-1120.6" font-family="Roboto" font-size="12.00">company_id</text>
<polygon fill="#bbdefb" stroke="none" points="196.72,-1115 196.72,-1135 276.72,-1135 276.72,-1115 196.72,-1115"/>
<polygon fill="none" stroke="black" points="196.72,-1115 196.72,-1135 276.72,-1135 276.72,-1115 196.72,-1115"/>
<text text-anchor="start" x="207.09" y="-1120.6" font-family="Roboto" font-size="12.00">INTEGER ()</text>
</a>
</g>
</g>
<!-- Company&#45;&gt;IdentificationNumber -->
<g id="edge7" class="edge">
<title>Company&#45;&gt;IdentificationNumber</title>
<g id="a_edge7"><a xlink:title="Relation between Company and IdentificationNumber">
<path fill="none" stroke="#1e88e5" stroke-dasharray="5,2" d="M490.98,-1550.51C391.84,-1534.98 227.6,-1492.52 152.47,-1378.25 146.7,-1369.48 143.71,-1359.98 142.8,-1350.16"/>
<polygon fill="#1e88e5" stroke="#1e88e5" points="146.3,-1350.42 142.64,-1340.47 139.31,-1350.53 146.3,-1350.42"/>
</a>
</g>
<text text-anchor="middle" x="198.84" y="-1368.75" font-family="Roboto" font-size="10.00">identification_number</text>
</g>
<!-- Tag -->
<g id="node7" class="node">
<title>Tag</title>
<g id="a_node7"><a xlink:href="http://Tag_details.html" xlink:title="&lt;TABLE&gt;">
<polygon fill="#3f51b5" stroke="none" points="228.22,-794.5 228.22,-814.5 373.22,-814.5 373.22,-794.5 228.22,-794.5"/>
<polygon fill="none" stroke="black" points="228.22,-794.5 228.22,-814.5 373.22,-814.5 373.22,-794.5 228.22,-794.5"/>
<text text-anchor="start" x="290.22" y="-800.1" font-family="Roboto" font-size="12.00" fill="white">Tag</text>
<polygon fill="#bbdefb" stroke="none" points="228.22,-774.5 228.22,-794.5 293.22,-794.5 293.22,-774.5 228.22,-774.5"/>
<polygon fill="none" stroke="black" points="228.22,-774.5 228.22,-794.5 293.22,-794.5 293.22,-774.5 228.22,-774.5"/>
<text text-anchor="start" x="255.84" y="-780.1" font-family="Roboto" font-size="12.00">id</text>
<polygon fill="#bbdefb" stroke="none" points="293.22,-774.5 293.22,-794.5 373.22,-794.5 373.22,-774.5 293.22,-774.5"/>
<polygon fill="none" stroke="black" points="293.22,-774.5 293.22,-794.5 373.22,-794.5 373.22,-774.5 293.22,-774.5"/>
<text text-anchor="start" x="296.09" y="-780.1" font-family="Roboto" font-size="12.00">INTEGER (PK)</text>
<polygon fill="#bbdefb" stroke="none" points="228.22,-754.5 228.22,-774.5 293.22,-774.5 293.22,-754.5 228.22,-754.5"/>
<polygon fill="none" stroke="black" points="228.22,-754.5 228.22,-774.5 293.22,-774.5 293.22,-754.5 228.22,-754.5"/>
<text text-anchor="start" x="245.72" y="-760.1" font-family="Roboto" font-size="12.00">name</text>
<polygon fill="#bbdefb" stroke="none" points="293.22,-754.5 293.22,-774.5 373.22,-774.5 373.22,-754.5 293.22,-754.5"/>
<polygon fill="none" stroke="black" points="293.22,-754.5 293.22,-774.5 373.22,-774.5 373.22,-754.5 293.22,-754.5"/>
<text text-anchor="start" x="300.97" y="-760.1" font-family="Roboto" font-size="12.00">VARCHAR ()</text>
<polygon fill="#bbdefb" stroke="none" points="228.22,-734.5 228.22,-754.5 293.22,-754.5 293.22,-734.5 228.22,-734.5"/>
<polygon fill="none" stroke="black" points="228.22,-734.5 228.22,-754.5 293.22,-754.5 293.22,-734.5 228.22,-734.5"/>
<text text-anchor="start" x="233.34" y="-740.1" font-family="Roboto" font-size="12.00">created_at</text>
<polygon fill="#bbdefb" stroke="none" points="293.22,-734.5 293.22,-754.5 373.22,-754.5 373.22,-734.5 293.22,-734.5"/>
<polygon fill="none" stroke="black" points="293.22,-734.5 293.22,-754.5 373.22,-754.5 373.22,-734.5 293.22,-734.5"/>
<text text-anchor="start" x="298.72" y="-740.1" font-family="Roboto" font-size="12.00">DATETIME ()</text>
<polygon fill="#bbdefb" stroke="none" points="228.22,-714.5 228.22,-734.5 293.22,-734.5 293.22,-714.5 228.22,-714.5"/>
<polygon fill="none" stroke="black" points="228.22,-714.5 228.22,-734.5 293.22,-734.5 293.22,-714.5 228.22,-714.5"/>
<text text-anchor="start" x="231.09" y="-720.1" font-family="Roboto" font-size="12.00">updated_at</text>
<polygon fill="#bbdefb" stroke="none" points="293.22,-714.5 293.22,-734.5 373.22,-734.5 373.22,-714.5 293.22,-714.5"/>
<polygon fill="none" stroke="black" points="293.22,-714.5 293.22,-734.5 373.22,-734.5 373.22,-714.5 293.22,-714.5"/>
<text text-anchor="start" x="298.72" y="-720.1" font-family="Roboto" font-size="12.00">DATETIME ()</text>
<polygon fill="#bbdefb" stroke="none" points="228.22,-694.5 228.22,-714.5 293.22,-714.5 293.22,-694.5 228.22,-694.5"/>
<polygon fill="none" stroke="black" points="228.22,-694.5 228.22,-714.5 293.22,-714.5 293.22,-694.5 228.22,-694.5"/>
<text text-anchor="start" x="234.84" y="-700.1" font-family="Roboto" font-size="12.00">creator_id</text>
<polygon fill="#bbdefb" stroke="none" points="293.22,-694.5 293.22,-714.5 373.22,-714.5 373.22,-694.5 293.22,-694.5"/>
<polygon fill="none" stroke="black" points="293.22,-694.5 293.22,-714.5 373.22,-714.5 373.22,-694.5 293.22,-694.5"/>
<text text-anchor="start" x="303.59" y="-700.1" font-family="Roboto" font-size="12.00">INTEGER ()</text>
<polygon fill="#bbdefb" stroke="none" points="228.22,-674.5 228.22,-694.5 293.22,-694.5 293.22,-674.5 228.22,-674.5"/>
<polygon fill="none" stroke="black" points="228.22,-674.5 228.22,-694.5 293.22,-694.5 293.22,-674.5 228.22,-674.5"/>
<text text-anchor="start" x="238.22" y="-680.1" font-family="Roboto" font-size="12.00">editor_id</text>
<polygon fill="#bbdefb" stroke="none" points="293.22,-674.5 293.22,-694.5 373.22,-694.5 373.22,-674.5 293.22,-674.5"/>
<polygon fill="none" stroke="black" points="293.22,-674.5 293.22,-694.5 373.22,-694.5 373.22,-674.5 293.22,-674.5"/>
<text text-anchor="start" x="303.59" y="-680.1" font-family="Roboto" font-size="12.00">INTEGER ()</text>
</a>
</g>
</g>
<!-- Company&#45;&gt;Tag -->
<g id="edge10" class="edge">
<title>Company&#45;&gt;Tag</title>
<g id="a_edge10"><a xlink:title="Relation between Company and Tag">
<path fill="none" stroke="#1e88e5" stroke-dasharray="5,2" d="M490.98,-1555.94C377.34,-1546.46 173.35,-1510.78 76.72,-1378.25 -58.39,-1192.94 0.38,-1050.16 136.72,-865.75 156.53,-838.96 184.02,-815.58 210.84,-796.73"/>
<polygon fill="#1e88e5" stroke="#1e88e5" points="212.76,-799.66 219.03,-791.12 208.8,-793.88 212.76,-799.66"/>
</a>
</g>
<text text-anchor="middle" x="28.09" y="-1073.5" font-family="Roboto" font-size="10.00">tags</text>
</g>
<!-- Contact -->
<g id="node8" class="node">
<title>Contact</title>
<g id="a_node8"><a xlink:href="http://Contact_details.html" xlink:title="&lt;TABLE&gt;">
<polygon fill="#3f51b5" stroke="none" points="713.72,-1325 713.72,-1345 863.72,-1345 863.72,-1325 713.72,-1325"/>
<polygon fill="none" stroke="black" points="713.72,-1325 713.72,-1345 863.72,-1345 863.72,-1325 713.72,-1325"/>
<text text-anchor="start" x="768.09" y="-1330.6" font-family="Roboto" font-size="12.00" fill="white">Contact</text>
<polygon fill="#bbdefb" stroke="none" points="713.72,-1305 713.72,-1325 783.72,-1325 783.72,-1305 713.72,-1305"/>
<polygon fill="none" stroke="black" points="713.72,-1305 713.72,-1325 783.72,-1325 783.72,-1305 713.72,-1305"/>
<text text-anchor="start" x="743.84" y="-1310.6" font-family="Roboto" font-size="12.00">id</text>
<polygon fill="#bbdefb" stroke="none" points="783.72,-1305 783.72,-1325 863.72,-1325 863.72,-1305 783.72,-1305"/>
<polygon fill="none" stroke="black" points="783.72,-1305 783.72,-1325 863.72,-1325 863.72,-1305 783.72,-1305"/>
<text text-anchor="start" x="786.59" y="-1310.6" font-family="Roboto" font-size="12.00">INTEGER (PK)</text>
<polygon fill="#bbdefb" stroke="none" points="713.72,-1285 713.72,-1305 783.72,-1305 783.72,-1285 713.72,-1285"/>
<polygon fill="none" stroke="black" points="713.72,-1285 713.72,-1305 783.72,-1305 783.72,-1285 713.72,-1285"/>
<text text-anchor="start" x="733.72" y="-1290.6" font-family="Roboto" font-size="12.00">name</text>
<polygon fill="#bbdefb" stroke="none" points="783.72,-1285 783.72,-1305 863.72,-1305 863.72,-1285 783.72,-1285"/>
<polygon fill="none" stroke="black" points="783.72,-1285 783.72,-1305 863.72,-1305 863.72,-1285 783.72,-1285"/>
<text text-anchor="start" x="791.47" y="-1290.6" font-family="Roboto" font-size="12.00">VARCHAR ()</text>
<polygon fill="#bbdefb" stroke="none" points="713.72,-1265 713.72,-1285 783.72,-1285 783.72,-1265 713.72,-1265"/>
<polygon fill="none" stroke="black" points="713.72,-1265 713.72,-1285 783.72,-1285 783.72,-1265 713.72,-1265"/>
<text text-anchor="start" x="738.97" y="-1270.6" font-family="Roboto" font-size="12.00">role</text>
<polygon fill="#bbdefb" stroke="none" points="783.72,-1265 783.72,-1285 863.72,-1285 863.72,-1265 783.72,-1265"/>
<polygon fill="none" stroke="black" points="783.72,-1265 783.72,-1285 863.72,-1285 863.72,-1265 783.72,-1265"/>
<text text-anchor="start" x="791.47" y="-1270.6" font-family="Roboto" font-size="12.00">VARCHAR ()</text>
<polygon fill="#bbdefb" stroke="none" points="713.72,-1245 713.72,-1265 783.72,-1265 783.72,-1245 713.72,-1245"/>
<polygon fill="none" stroke="black" points="713.72,-1245 713.72,-1265 783.72,-1265 783.72,-1245 713.72,-1245"/>
<text text-anchor="start" x="732.22" y="-1250.6" font-family="Roboto" font-size="12.00">phone</text>
<polygon fill="#bbdefb" stroke="none" points="783.72,-1245 783.72,-1265 863.72,-1265 863.72,-1245 783.72,-1245"/>
<polygon fill="none" stroke="black" points="783.72,-1245 783.72,-1265 863.72,-1265 863.72,-1245 783.72,-1245"/>
<text text-anchor="start" x="791.47" y="-1250.6" font-family="Roboto" font-size="12.00">VARCHAR ()</text>
<polygon fill="#bbdefb" stroke="none" points="713.72,-1225 713.72,-1245 783.72,-1245 783.72,-1225 713.72,-1225"/>
<polygon fill="none" stroke="black" points="713.72,-1225 713.72,-1245 783.72,-1245 783.72,-1225 713.72,-1225"/>
<text text-anchor="start" x="734.09" y="-1230.6" font-family="Roboto" font-size="12.00">email</text>
<polygon fill="#bbdefb" stroke="none" points="783.72,-1225 783.72,-1245 863.72,-1245 863.72,-1225 783.72,-1225"/>
<polygon fill="none" stroke="black" points="783.72,-1225 783.72,-1245 863.72,-1245 863.72,-1225 783.72,-1225"/>
<text text-anchor="start" x="791.47" y="-1230.6" font-family="Roboto" font-size="12.00">VARCHAR ()</text>
<polygon fill="#bbdefb" stroke="none" points="713.72,-1205 713.72,-1225 783.72,-1225 783.72,-1205 713.72,-1205"/>
<polygon fill="none" stroke="black" points="713.72,-1205 713.72,-1225 783.72,-1225 783.72,-1205 713.72,-1205"/>
<text text-anchor="start" x="721.34" y="-1210.6" font-family="Roboto" font-size="12.00">created_at</text>
<polygon fill="#bbdefb" stroke="none" points="783.72,-1205 783.72,-1225 863.72,-1225 863.72,-1205 783.72,-1205"/>
<polygon fill="none" stroke="black" points="783.72,-1205 783.72,-1225 863.72,-1225 863.72,-1205 783.72,-1205"/>
<text text-anchor="start" x="789.22" y="-1210.6" font-family="Roboto" font-size="12.00">DATETIME ()</text>
<polygon fill="#bbdefb" stroke="none" points="713.72,-1185 713.72,-1205 783.72,-1205 783.72,-1185 713.72,-1185"/>
<polygon fill="none" stroke="black" points="713.72,-1185 713.72,-1205 783.72,-1205 783.72,-1185 713.72,-1185"/>
<text text-anchor="start" x="719.09" y="-1190.6" font-family="Roboto" font-size="12.00">updated_at</text>
<polygon fill="#bbdefb" stroke="none" points="783.72,-1185 783.72,-1205 863.72,-1205 863.72,-1185 783.72,-1185"/>
<polygon fill="none" stroke="black" points="783.72,-1185 783.72,-1205 863.72,-1205 863.72,-1185 783.72,-1185"/>
<text text-anchor="start" x="789.22" y="-1190.6" font-family="Roboto" font-size="12.00">DATETIME ()</text>
<polygon fill="#bbdefb" stroke="none" points="713.72,-1165 713.72,-1185 783.72,-1185 783.72,-1165 713.72,-1165"/>
<polygon fill="none" stroke="black" points="713.72,-1165 713.72,-1185 783.72,-1185 783.72,-1165 713.72,-1165"/>
<text text-anchor="start" x="722.84" y="-1170.6" font-family="Roboto" font-size="12.00">creator_id</text>
<polygon fill="#bbdefb" stroke="none" points="783.72,-1165 783.72,-1185 863.72,-1185 863.72,-1165 783.72,-1165"/>
<polygon fill="none" stroke="black" points="783.72,-1165 783.72,-1185 863.72,-1185 863.72,-1165 783.72,-1165"/>
<text text-anchor="start" x="794.09" y="-1170.6" font-family="Roboto" font-size="12.00">INTEGER ()</text>
<polygon fill="#bbdefb" stroke="none" points="713.72,-1145 713.72,-1165 783.72,-1165 783.72,-1145 713.72,-1145"/>
<polygon fill="none" stroke="black" points="713.72,-1145 713.72,-1165 783.72,-1165 783.72,-1145 713.72,-1145"/>
<text text-anchor="start" x="726.22" y="-1150.6" font-family="Roboto" font-size="12.00">editor_id</text>
<polygon fill="#bbdefb" stroke="none" points="783.72,-1145 783.72,-1165 863.72,-1165 863.72,-1145 783.72,-1145"/>
<polygon fill="none" stroke="black" points="783.72,-1145 783.72,-1165 863.72,-1165 863.72,-1145 783.72,-1145"/>
<text text-anchor="start" x="794.09" y="-1150.6" font-family="Roboto" font-size="12.00">INTEGER ()</text>
<polygon fill="#bbdefb" stroke="none" points="713.72,-1125 713.72,-1145 783.72,-1145 783.72,-1125 713.72,-1125"/>
<polygon fill="none" stroke="black" points="713.72,-1125 713.72,-1145 783.72,-1145 783.72,-1125 713.72,-1125"/>
<text text-anchor="start" x="716.47" y="-1130.6" font-family="Roboto" font-size="12.00">company_id</text>
<polygon fill="#bbdefb" stroke="none" points="783.72,-1125 783.72,-1145 863.72,-1145 863.72,-1125 783.72,-1125"/>
<polygon fill="none" stroke="black" points="783.72,-1125 783.72,-1145 863.72,-1145 863.72,-1125 783.72,-1125"/>
<text text-anchor="start" x="794.09" y="-1130.6" font-family="Roboto" font-size="12.00">INTEGER ()</text>
<polygon fill="#bbdefb" stroke="none" points="713.72,-1105 713.72,-1125 783.72,-1125 783.72,-1105 713.72,-1105"/>
<polygon fill="none" stroke="black" points="713.72,-1105 713.72,-1125 783.72,-1125 783.72,-1105 713.72,-1105"/>
<text text-anchor="start" x="723.22" y="-1110.6" font-family="Roboto" font-size="12.00">project_id</text>
<polygon fill="#bbdefb" stroke="none" points="783.72,-1105 783.72,-1125 863.72,-1125 863.72,-1105 783.72,-1105"/>
<polygon fill="none" stroke="black" points="783.72,-1105 783.72,-1125 863.72,-1125 863.72,-1105 783.72,-1105"/>
<text text-anchor="start" x="794.09" y="-1110.6" font-family="Roboto" font-size="12.00">INTEGER ()</text>
</a>
</g>
</g>
<!-- Company&#45;&gt;Contact -->
<g id="edge12" class="edge">
<title>Company&#45;&gt;Contact</title>
<g id="a_edge12"><a xlink:title="Relation between Company and Contact">
<path fill="none" stroke="#1e88e5" stroke-dasharray="5,2" d="M652.63,-1459.52C672.22,-1433.68 692.47,-1405.45 709.72,-1378.25 713.74,-1371.91 717.73,-1365.35 721.66,-1358.66"/>
<polygon fill="#1e88e5" stroke="#1e88e5" points="724.63,-1360.51 726.62,-1350.1 718.58,-1357 724.63,-1360.51"/>
</a>
</g>
<text text-anchor="middle" x="733.47" y="-1368.75" font-family="Roboto" font-size="10.00">contacts</text>
</g>
<!-- Project&#45;&gt;Activity -->
<g id="edge24" class="edge">
<title>Project&#45;&gt;Activity</title>
<g id="a_edge24"><a xlink:title="Relation between Project and Activity">
<path fill="none" stroke="#1e88e5" stroke-dasharray="5,2" d="M727.53,-471.51C850.77,-532.83 1051.72,-660.5 1051.72,-841.12 1051.72,-1561.25 1051.72,-1561.25 1051.72,-1561.25 1051.72,-1639.65 998.38,-1713.75 952.18,-1763.24"/>
<polygon fill="#1e88e5" stroke="#1e88e5" points="949.65,-1760.82 945.29,-1770.48 954.72,-1765.65 949.65,-1760.82"/>
</a>
</g>
<text text-anchor="middle" x="1075.34" y="-1073.5" font-family="Roboto" font-size="10.00">companies</text>
</g>
<!-- Project&#45;&gt;Comment -->
<g id="edge26" class="edge">
<title>Project&#45;&gt;Comment</title>
<g id="a_edge26"><a xlink:title="Relation between Project and Comment">
<path fill="none" stroke="#1e88e5" stroke-dasharray="5,2" d="M638.04,-235.51C637.99,-225.53 637.89,-215.65 637.72,-206 637.68,-203.79 637.63,-201.57 637.59,-199.32"/>
<polygon fill="#1e88e5" stroke="#1e88e5" points="641.09,-199.39 637.35,-189.47 634.09,-199.55 641.09,-199.39"/>
</a>
</g>
<text text-anchor="middle" x="661.59" y="-207.75" font-family="Roboto" font-size="10.00">comments</text>
</g>
<!-- Project&#45;&gt;User -->
<g id="edge21" class="edge">
<title>Project&#45;&gt;User</title>
<g id="a_edge21"><a xlink:title="Relation between Project and User">
<path fill="none" stroke="#1e88e5" stroke-dasharray="5,2" d="M539.8,-512.34C498.33,-554.85 454.09,-610.39 432.22,-670.5 420.25,-703.39 425.37,-786.24 432.49,-854.72"/>
<polygon fill="#1e88e5" stroke="#1e88e5" points="428.99,-854.94 433.53,-864.51 435.95,-854.2 428.99,-854.94"/>
</a>
</g>
<text text-anchor="middle" x="455.97" y="-740.62" font-family="Roboto" font-size="10.00">created_by</text>
</g>
<!-- Project&#45;&gt;User -->
<g id="edge22" class="edge">
<title>Project&#45;&gt;User</title>
<g id="a_edge22"><a xlink:title="Relation between Project and User">
<path fill="none" stroke="#1e88e5" stroke-dasharray="5,2" d="M539.8,-609.39C530.76,-629.73 522.25,-650.38 514.97,-670.5 513.31,-675.07 489.53,-774.5 470.29,-855.31"/>
<polygon fill="#1e88e5" stroke="#1e88e5" points="466.99,-854.06 468.08,-864.6 473.8,-855.68 466.99,-854.06"/>
</a>
</g>
<text text-anchor="middle" x="540.09" y="-740.62" font-family="Roboto" font-size="10.00">updated_by</text>
</g>
<!-- Project&#45;&gt;Tag -->
<g id="edge23" class="edge">
<title>Project&#45;&gt;Tag</title>
<g id="a_edge23"><a xlink:title="Relation between Project and Tag">
<path fill="none" stroke="#1e88e5" stroke-dasharray="5,2" d="M539.88,-503.2C491.76,-542.23 433.27,-592.25 384.97,-641.25 378.47,-647.84 371.93,-654.89 365.53,-662.09"/>
<polygon fill="#1e88e5" stroke="#1e88e5" points="363.04,-659.62 359.08,-669.45 368.3,-664.23 363.04,-659.62"/>
</a>
</g>
<text text-anchor="middle" x="395.09" y="-643" font-family="Roboto" font-size="10.00">tags</text>
</g>
<!-- Project&#45;&gt;Contact -->
<g id="edge25" class="edge">
<title>Project&#45;&gt;Contact</title>
<g id="a_edge25"><a xlink:title="Relation between Project and Contact">
<path fill="none" stroke="#1e88e5" stroke-dasharray="5,2" d="M727.67,-542.99C753.78,-581.09 778.58,-625.45 791.72,-670.5 832.18,-809.21 824.08,-975.94 810.5,-1089.91"/>
<polygon fill="#1e88e5" stroke="#1e88e5" points="807.05,-1089.26 809.31,-1099.61 814,-1090.11 807.05,-1089.26"/>
</a>
</g>
<text text-anchor="middle" x="838.47" y="-838.25" font-family="Roboto" font-size="10.00">contacts</text>
</g>
<!-- Comment&#45;&gt;Company -->
<g id="edge5" class="edge">
<title>Comment&#45;&gt;Company</title>
<g id="a_edge5"><a xlink:title="Relation between Comment and Company">
<path fill="none" stroke="#1e88e5" stroke-dasharray="5,2" d="M716.42,-149.38C794.51,-207.99 899.72,-309.07 899.72,-428.25 899.72,-1226 899.72,-1226 899.72,-1226 899.72,-1281.32 910.25,-1302.23 880.72,-1349 829.45,-1430.18 734.21,-1487.76 662.96,-1521.9"/>
<polygon fill="#1e88e5" stroke="#1e88e5" points="661.56,-1518.69 654,-1526.12 664.54,-1525.02 661.56,-1518.69"/>
</a>
</g>
<text text-anchor="middle" x="919.22" y="-838.25" font-family="Roboto" font-size="10.00">company</text>
</g>
<!-- Comment&#45;&gt;Project -->
<g id="edge6" class="edge">
<title>Comment&#45;&gt;Project</title>
<g id="a_edge6"><a xlink:title="Relation between Comment and Project">
<path fill="none" stroke="#1e88e5" stroke-dasharray="5,2" d="M611.02,-187.71C610.01,-193.87 609.14,-200.01 608.47,-206 607.79,-212.03 607.29,-218.15 606.95,-224.33"/>
<polygon fill="#1e88e5" stroke="#1e88e5" points="603.46,-223.87 606.56,-234 610.46,-224.15 603.46,-223.87"/>
</a>
</g>
<text text-anchor="middle" x="623.34" y="-207.75" font-family="Roboto" font-size="10.00">project</text>
</g>
<!-- Comment&#45;&gt;User -->
<g id="edge3" class="edge">
<title>Comment&#45;&gt;User</title>
<g id="a_edge3"><a xlink:title="Relation between Comment and User">
<path fill="none" stroke="#1e88e5" stroke-dasharray="5,2" d="M550.93,-102.97C428.66,-116.53 208.62,-148.4 156.72,-206 -34.2,-417.9 -35.21,-636.77 156.72,-847.75 204.31,-900.07 279.35,-927.93 341.03,-942.66"/>
<polygon fill="#1e88e5" stroke="#1e88e5" points="339.98,-946.01 350.51,-944.83 341.55,-939.18 339.98,-946.01"/>
</a>
</g>
<text text-anchor="middle" x="57.97" y="-643" font-family="Roboto" font-size="10.00">created_by</text>
</g>
<!-- Comment&#45;&gt;User -->
<g id="edge4" class="edge">
<title>Comment&#45;&gt;User</title>
<g id="a_edge4"><a xlink:title="Relation between Comment and User">
<path fill="none" stroke="#1e88e5" stroke-dasharray="5,2" d="M551.13,-172.09C448.23,-274.4 277.76,-466.08 210.72,-670.5 198.63,-707.35 179.17,-800.92 222.72,-847.75 254.82,-882.27 300.02,-907.52 341.34,-925.13"/>
<polygon fill="#1e88e5" stroke="#1e88e5" points="339.78,-928.27 350.35,-928.87 342.46,-921.81 339.78,-928.27"/>
</a>
</g>
<text text-anchor="middle" x="245.09" y="-643" font-family="Roboto" font-size="10.00">updated_by</text>
</g>
<!-- User&#45;&gt;Company -->
<g id="edge31" class="edge">
<title>User&#45;&gt;Company</title>
<g id="a_edge31"><a xlink:title="Relation between User and Company">
<path fill="none" stroke="#1e88e5" stroke-dasharray="5,2" d="M525.33,-1053.58C536.06,-1064.04 547.32,-1074.12 558.72,-1083 571.9,-1093.27 583.19,-1086.63 591.72,-1101 619.62,-1148 611.85,-1276.38 598.63,-1385.34"/>
<polygon fill="#1e88e5" stroke="#1e88e5" points="595.19,-1384.63 597.44,-1394.99 602.14,-1385.49 595.19,-1384.63"/>
</a>
</g>
<text text-anchor="middle" x="647.47" y="-1221.12" font-family="Roboto" font-size="10.00">companies_stars</text>
</g>
<!-- User&#45;&gt;Company -->
<g id="edge33" class="edge">
<title>User&#45;&gt;Company</title>
<g id="a_edge33"><a xlink:title="Relation between User and Company">
<path fill="none" stroke="#1e88e5" stroke-dasharray="5,2" d="M357.63,-1053.61C347.66,-1068.52 339.01,-1084.51 333.22,-1101 296.67,-1204.99 287.86,-1248.54 333.22,-1349 363.66,-1416.41 427.57,-1470.86 481.58,-1507.44"/>
<polygon fill="#1e88e5" stroke="#1e88e5" points="479.33,-1510.14 489.59,-1512.77 483.21,-1504.31 479.33,-1510.14"/>
</a>
</g>
<text text-anchor="middle" x="377.97" y="-1221.12" font-family="Roboto" font-size="10.00">selected_companies</text>
</g>
<!-- User&#45;&gt;Project -->
<g id="edge32" class="edge">
<title>User&#45;&gt;Project</title>
<g id="a_edge32"><a xlink:title="Relation between User and Project">
<path fill="none" stroke="#1e88e5" stroke-dasharray="5,2" d="M534.8,-866.03C545.88,-850.98 556.01,-834.92 563.72,-818.5 572.2,-800.44 587.46,-718.39 601.57,-634.34"/>
<polygon fill="#1e88e5" stroke="#1e88e5" points="605.02,-634.95 603.22,-624.51 598.12,-633.79 605.02,-634.95"/>
</a>
</g>
<text text-anchor="middle" x="626.09" y="-740.62" font-family="Roboto" font-size="10.00">projects_stars</text>
</g>
<!-- User&#45;&gt;Project -->
<g id="edge34" class="edge">
<title>User&#45;&gt;Project</title>
<g id="a_edge34"><a xlink:title="Relation between User and Project">
<path fill="none" stroke="#1e88e5" stroke-dasharray="5,2" d="M539.49,-922.99C584.78,-900.4 634.82,-866.31 660.72,-818.5 690.77,-763.01 695.3,-696.34 688.94,-634.03"/>
<polygon fill="#1e88e5" stroke="#1e88e5" points="692.44,-633.9 687.84,-624.36 685.49,-634.68 692.44,-633.9"/>
</a>
</g>
<text text-anchor="middle" x="729.59" y="-740.62" font-family="Roboto" font-size="10.00">selected_projects</text>
</g>
<!-- User&#45;&gt;Tag -->
<g id="edge35" class="edge">
<title>User&#45;&gt;Tag</title>
<g id="a_edge35"><a xlink:title="Relation between User and Tag">
<path fill="none" stroke="#1e88e5" stroke-dasharray="5,2" d="M351.77,-906.92C331.24,-890.82 312.23,-871.06 300.72,-847.75 297.85,-841.94 295.8,-835.7 294.39,-829.29"/>
<polygon fill="#1e88e5" stroke="#1e88e5" points="297.91,-829.15 292.84,-819.85 291.01,-830.28 297.91,-829.15"/>
</a>
</g>
<text text-anchor="middle" x="330.72" y="-838.25" font-family="Roboto" font-size="10.00">selected_tags</text>
</g>
<!-- User&#45;&gt;Contact -->
<g id="edge36" class="edge">
<title>User&#45;&gt;Contact</title>
<g id="a_edge36"><a xlink:title="Relation between User and Contact">
<path fill="none" stroke="#1e88e5" stroke-dasharray="5,2" d="M539.68,-1018.26C589.24,-1048.52 641.04,-1080 646.97,-1083 665.73,-1092.49 673.91,-1088.37 690.72,-1101 692.96,-1102.69 695.18,-1104.43 697.38,-1106.24"/>
<polygon fill="#1e88e5" stroke="#1e88e5" points="694.74,-1108.58 704.59,-1112.46 699.31,-1103.28 694.74,-1108.58"/>
</a>
</g>
<text text-anchor="middle" x="687.09" y="-1073.5" font-family="Roboto" font-size="10.00">selected_contacts</text>
</g>
<!-- IdentificationNumber&#45;&gt;Company -->
<g id="edge20" class="edge">
<title>IdentificationNumber&#45;&gt;Company</title>
<g id="a_edge20"><a xlink:title="Relation between IdentificationNumber and Company">
<path fill="none" stroke="#1e88e5" stroke-dasharray="5,2" d="M240.96,-1338.97C248.57,-1353.04 257.44,-1366.57 267.72,-1378.25 325.77,-1444.25 413.9,-1493.02 480.35,-1523.2"/>
<polygon fill="#1e88e5" stroke="#1e88e5" points="478.89,-1526.37 489.44,-1527.26 481.75,-1519.98 478.89,-1526.37"/>
</a>
</g>
<text text-anchor="middle" x="287.22" y="-1368.75" font-family="Roboto" font-size="10.00">company</text>
</g>
<!-- IdentificationNumber&#45;&gt;User -->
<g id="edge18" class="edge">
<title>IdentificationNumber&#45;&gt;User</title>
<g id="a_edge18"><a xlink:title="Relation between IdentificationNumber and User">
<path fill="none" stroke="#1e88e5" stroke-dasharray="5,2" d="M235.13,-1111.07C242.08,-1096.99 250.38,-1083.45 260.22,-1071.75 282.35,-1045.43 312.41,-1023.73 341.88,-1006.71"/>
<polygon fill="#1e88e5" stroke="#1e88e5" points="343.52,-1009.81 350.52,-1001.86 340.09,-1003.7 343.52,-1009.81"/>
</a>
</g>
<text text-anchor="middle" x="283.97" y="-1073.5" font-family="Roboto" font-size="10.00">created_by</text>
</g>
<!-- IdentificationNumber&#45;&gt;User -->
<g id="edge19" class="edge">
<title>IdentificationNumber&#45;&gt;User</title>
<g id="a_edge19"><a xlink:title="Relation between IdentificationNumber and User">
<path fill="none" stroke="#1e88e5" stroke-dasharray="5,2" d="M185.77,-1111.22C187.91,-1097.2 192.3,-1083.63 199.97,-1071.75 231.2,-1023.37 289.15,-995.86 340.94,-980.33"/>
<polygon fill="#1e88e5" stroke="#1e88e5" points="341.78,-983.73 350.43,-977.61 339.85,-977 341.78,-983.73"/>
</a>
</g>
<text text-anchor="middle" x="225.09" y="-1073.5" font-family="Roboto" font-size="10.00">updated_by</text>
</g>
<!-- Tag&#45;&gt;Company -->
<g id="edge29" class="edge">
<title>Tag&#45;&gt;Company</title>
<g id="a_edge29"><a xlink:title="Relation between Tag and Company">
<path fill="none" stroke="#1e88e5" stroke-dasharray="5,2" d="M235.1,-818.29C230.69,-824.3 226.51,-830.4 222.72,-836.5 99.57,-1034.59 12.45,-1137 109.72,-1349 173.65,-1488.33 364.02,-1535.39 479.48,-1551.24"/>
<polygon fill="#1e88e5" stroke="#1e88e5" points="478.88,-1554.69 489.25,-1552.52 479.8,-1547.75 478.88,-1554.69"/>
</a>
</g>
<text text-anchor="middle" x="112.34" y="-1073.5" font-family="Roboto" font-size="10.00">companies</text>
</g>
<!-- Tag&#45;&gt;Project -->
<g id="edge30" class="edge">
<title>Tag&#45;&gt;Project</title>
<g id="a_edge30"><a xlink:title="Relation between Tag and Project">
<path fill="none" stroke="#1e88e5" stroke-dasharray="5,2" d="M320.49,-670.53C325.05,-660.16 330.57,-650.04 337.22,-641.25 388.15,-573.91 466.71,-519.38 530.17,-482.63"/>
<polygon fill="#1e88e5" stroke="#1e88e5" points="531.56,-485.87 538.5,-477.86 528.08,-479.79 531.56,-485.87"/>
</a>
</g>
<text text-anchor="middle" x="354.97" y="-643" font-family="Roboto" font-size="10.00">projects</text>
</g>
<!-- Tag&#45;&gt;User -->
<g id="edge27" class="edge">
<title>Tag&#45;&gt;User</title>
<g id="a_edge27"><a xlink:title="Relation between Tag and User">
<path fill="none" stroke="#1e88e5" stroke-dasharray="5,2" d="M350.17,-818.23C358.55,-830.55 367.39,-843.55 376.17,-856.46"/>
<polygon fill="#1e88e5" stroke="#1e88e5" points="373.17,-858.28 381.69,-864.58 378.96,-854.35 373.17,-858.28"/>
</a>
</g>
<text text-anchor="middle" x="392.97" y="-838.25" font-family="Roboto" font-size="10.00">created_by</text>
</g>
<!-- Tag&#45;&gt;User -->
<g id="edge28" class="edge">
<title>Tag&#45;&gt;User</title>
<g id="a_edge28"><a xlink:title="Relation between Tag and User">
<path fill="none" stroke="#1e88e5" stroke-dasharray="5,2" d="M226.48,-818.27C223.56,-828.07 224.07,-838.08 229.97,-847.75 254.59,-888.11 299.1,-914.42 341.31,-931.23"/>
<polygon fill="#1e88e5" stroke="#1e88e5" points="339.98,-934.47 350.57,-934.77 342.48,-927.93 339.98,-934.47"/>
</a>
</g>
<text text-anchor="middle" x="255.09" y="-838.25" font-family="Roboto" font-size="10.00">updated_by</text>
</g>
<!-- Contact&#45;&gt;Company -->
<g id="edge16" class="edge">
<title>Contact&#45;&gt;Company</title>
<g id="a_edge16"><a xlink:title="Relation between Contact and Company">
<path fill="none" stroke="#1e88e5" stroke-dasharray="5,2" d="M705.88,-1333.48C700.88,-1338.84 695.81,-1344.05 690.72,-1349 681.15,-1358.29 675.24,-1356.74 666.72,-1367 661.48,-1373.3 656.45,-1379.94 651.62,-1386.81"/>
<polygon fill="#1e88e5" stroke="#1e88e5" points="648.73,-1384.82 646,-1395.06 654.52,-1388.76 648.73,-1384.82"/>
</a>
</g>
<text text-anchor="middle" x="686.22" y="-1368.75" font-family="Roboto" font-size="10.00">company</text>
</g>
<!-- Contact&#45;&gt;Project -->
<g id="edge17" class="edge">
<title>Contact&#45;&gt;Project</title>
<g id="a_edge17"><a xlink:title="Relation between Contact and Project">
<path fill="none" stroke="#1e88e5" stroke-dasharray="5,2" d="M789.16,-1101.01C789.06,-1091.11 788.92,-1081.26 788.72,-1071.75 787.77,-1027.14 784.13,-713.36 771.72,-670.5 762.61,-639.06 748.6,-607.35 732.92,-577.75"/>
<polygon fill="#1e88e5" stroke="#1e88e5" points="736.1,-576.26 728.27,-569.12 729.94,-579.58 736.1,-576.26"/>
</a>
</g>
<text text-anchor="middle" x="799.34" y="-838.25" font-family="Roboto" font-size="10.00">project</text>
</g>
<!-- Contact&#45;&gt;User -->
<g id="edge14" class="edge">
<title>Contact&#45;&gt;User</title>
<g id="a_edge14"><a xlink:title="Relation between Contact and User">
<path fill="none" stroke="#1e88e5" stroke-dasharray="5,2" d="M752.03,-1101.12C745.7,-1090.41 738.32,-1080.38 729.72,-1071.75 681.51,-1023.4 609.79,-995.6 550.49,-979.91"/>
<polygon fill="#1e88e5" stroke="#1e88e5" points="551.59,-976.57 541.04,-977.49 549.86,-983.36 551.59,-976.57"/>
</a>
</g>
<text text-anchor="middle" x="761.97" y="-1073.5" font-family="Roboto" font-size="10.00">created_by</text>
</g>
<!-- Contact&#45;&gt;User -->
<g id="edge15" class="edge">
<title>Contact&#45;&gt;User</title>
<g id="a_edge15"><a xlink:title="Relation between Contact and User">
<path fill="none" stroke="#1e88e5" stroke-dasharray="5,2" d="M705.76,-1111.17C700.92,-1107.45 695.9,-1104.03 690.72,-1101 647.28,-1075.62 624.24,-1104.93 578.97,-1083 566.25,-1076.84 553.88,-1069.06 542.13,-1060.43"/>
<polygon fill="#1e88e5" stroke="#1e88e5" points="544.55,-1057.88 534.48,-1054.6 540.31,-1063.44 544.55,-1057.88"/>
</a>
</g>
<text text-anchor="middle" x="604.09" y="-1073.5" font-family="Roboto" font-size="10.00">updated_by</text>
</g>
<!-- Themes -->
<g id="node9" class="node">
<title>Themes</title>
<g id="a_node9"><a xlink:href="http://Themes_details.html" xlink:title="&lt;TABLE&gt;">
<polygon fill="#3f51b5" stroke="none" points="995.22,-1835.5 995.22,-1855.5 1118.22,-1855.5 1118.22,-1835.5 995.22,-1835.5"/>
<polygon fill="none" stroke="black" points="995.22,-1835.5 995.22,-1855.5 1118.22,-1855.5 1118.22,-1835.5 995.22,-1835.5"/>
<text text-anchor="start" x="1035.34" y="-1841.1" font-family="Roboto" font-size="12.00" fill="white">Themes</text>
<polygon fill="#bbdefb" stroke="none" points="995.22,-1815.5 995.22,-1835.5 1038.22,-1835.5 1038.22,-1815.5 995.22,-1815.5"/>
<polygon fill="none" stroke="black" points="995.22,-1815.5 995.22,-1835.5 1038.22,-1835.5 1038.22,-1815.5 995.22,-1815.5"/>
<text text-anchor="start" x="997.97" y="-1821.1" font-family="Roboto" font-size="12.00">user_id</text>
<polygon fill="#bbdefb" stroke="none" points="1038.22,-1815.5 1038.22,-1835.5 1118.22,-1835.5 1118.22,-1815.5 1038.22,-1815.5"/>
<polygon fill="none" stroke="black" points="1038.22,-1815.5 1038.22,-1835.5 1118.22,-1835.5 1118.22,-1815.5 1038.22,-1815.5"/>
<text text-anchor="start" x="1041.09" y="-1821.1" font-family="Roboto" font-size="12.00">INTEGER (PK)</text>
<polygon fill="#bbdefb" stroke="none" points="995.22,-1795.5 995.22,-1815.5 1038.22,-1815.5 1038.22,-1795.5 995.22,-1795.5"/>
<polygon fill="none" stroke="black" points="995.22,-1795.5 995.22,-1815.5 1038.22,-1815.5 1038.22,-1795.5 995.22,-1795.5"/>
<text text-anchor="start" x="1000.22" y="-1801.1" font-family="Roboto" font-size="12.00">theme</text>
<polygon fill="#bbdefb" stroke="none" points="1038.22,-1795.5 1038.22,-1815.5 1118.22,-1815.5 1118.22,-1795.5 1038.22,-1795.5"/>
<polygon fill="none" stroke="black" points="1038.22,-1795.5 1038.22,-1815.5 1118.22,-1815.5 1118.22,-1795.5 1038.22,-1795.5"/>
<text text-anchor="start" x="1045.97" y="-1801.1" font-family="Roboto" font-size="12.00">VARCHAR ()</text>
</a>
</g>
</g>
</g>
</svg>
